<svg width="162" height="40" viewBox="0 0 162 40" fill="none" xmlns="http://www.w3.org/2000/svg">
<rect x="0.5" y="0.5" width="161" height="39" rx="1.5" fill="#FCE8E7"/>
<path d="M38.732 20.268C40.052 20.448 40.994 20.832 41.558 21.42C42.122 21.996 42.404 22.692 42.404 23.508C42.404 24.192 42.23 24.798 41.882 25.326C41.534 25.854 41.036 26.268 40.388 26.568C39.74 26.856 38.972 27 38.084 27C37.76 27 37.484 26.994 37.256 26.982C36.488 26.958 35.732 26.946 34.988 26.946C34.004 26.946 33.26 26.964 32.756 27V26.64C33.188 26.616 33.5 26.568 33.692 26.496C33.896 26.424 34.034 26.286 34.106 26.082C34.178 25.878 34.214 25.548 34.214 25.092V16.164C34.214 15.708 34.178 15.378 34.106 15.174C34.034 14.97 33.896 14.832 33.692 14.76C33.5 14.688 33.188 14.64 32.756 14.616V14.256C33.26 14.292 33.992 14.31 34.952 14.31L36.896 14.292C37.124 14.28 37.382 14.274 37.67 14.274C38.894 14.274 39.83 14.532 40.478 15.048C41.138 15.564 41.468 16.248 41.468 17.1C41.468 17.796 41.246 18.42 40.802 18.972C40.37 19.524 39.68 19.944 38.732 20.232V20.268ZM37.22 14.616C36.848 14.616 36.566 14.658 36.374 14.742C36.194 14.826 36.068 14.976 35.996 15.192C35.924 15.408 35.888 15.732 35.888 16.164V20.232H37.094C38.078 20.232 38.762 19.968 39.146 19.44C39.542 18.9 39.74 18.186 39.74 17.298C39.74 16.398 39.542 15.726 39.146 15.282C38.75 14.838 38.108 14.616 37.22 14.616ZM37.238 26.586C39.482 26.586 40.604 25.536 40.604 23.436C40.604 22.488 40.346 21.768 39.83 21.276C39.326 20.784 38.516 20.538 37.4 20.538H35.888V25.092C35.888 25.524 35.924 25.842 35.996 26.046C36.068 26.25 36.194 26.394 36.374 26.478C36.566 26.55 36.854 26.586 37.238 26.586ZM49.8928 14.004C51.0328 14.004 52.0288 14.262 52.8808 14.778C53.7448 15.294 54.4108 16.044 54.8788 17.028C55.3588 18 55.5988 19.164 55.5988 20.52C55.5988 21.84 55.3528 23.01 54.8608 24.03C54.3808 25.05 53.7028 25.842 52.8268 26.406C51.9628 26.97 50.9788 27.252 49.8748 27.252C48.7348 27.252 47.7328 26.994 46.8688 26.478C46.0168 25.962 45.3508 25.218 44.8708 24.246C44.4028 23.262 44.1688 22.092 44.1688 20.736C44.1688 19.416 44.4088 18.246 44.8888 17.226C45.3808 16.206 46.0588 15.414 46.9228 14.85C47.7988 14.286 48.7888 14.004 49.8928 14.004ZM49.8208 14.328C49.0528 14.328 48.3748 14.598 47.7868 15.138C47.2108 15.666 46.7608 16.41 46.4368 17.37C46.1248 18.33 45.9688 19.428 45.9688 20.664C45.9688 21.912 46.1428 23.01 46.4908 23.958C46.8508 24.906 47.3308 25.638 47.9308 26.154C48.5308 26.67 49.2028 26.928 49.9468 26.928C50.7148 26.928 51.3868 26.664 51.9628 26.136C52.5508 25.596 53.0008 24.846 53.3128 23.886C53.6368 22.926 53.7988 21.828 53.7988 20.592C53.7988 19.344 53.6188 18.246 53.2588 17.298C52.9108 16.35 52.4368 15.618 51.8368 15.102C51.2368 14.586 50.5648 14.328 49.8208 14.328ZM63.2346 14.004C64.3746 14.004 65.3706 14.262 66.2226 14.778C67.0866 15.294 67.7526 16.044 68.2206 17.028C68.7006 18 68.9406 19.164 68.9406 20.52C68.9406 21.84 68.6946 23.01 68.2026 24.03C67.7226 25.05 67.0446 25.842 66.1686 26.406C65.3046 26.97 64.3206 27.252 63.2166 27.252C62.0766 27.252 61.0746 26.994 60.2106 26.478C59.3586 25.962 58.6926 25.218 58.2126 24.246C57.7446 23.262 57.5106 22.092 57.5106 20.736C57.5106 19.416 57.7506 18.246 58.2306 17.226C58.7226 16.206 59.4006 15.414 60.2646 14.85C61.1406 14.286 62.1306 14.004 63.2346 14.004ZM63.1626 14.328C62.3946 14.328 61.7166 14.598 61.1286 15.138C60.5526 15.666 60.1026 16.41 59.7786 17.37C59.4666 18.33 59.3106 19.428 59.3106 20.664C59.3106 21.912 59.4846 23.01 59.8326 23.958C60.1926 24.906 60.6726 25.638 61.2726 26.154C61.8726 26.67 62.5446 26.928 63.2886 26.928C64.0566 26.928 64.7286 26.664 65.3046 26.136C65.8926 25.596 66.3426 24.846 66.6546 23.886C66.9786 22.926 67.1406 21.828 67.1406 20.592C67.1406 19.344 66.9606 18.246 66.6006 17.298C66.2526 16.35 65.7786 15.618 65.1786 15.102C64.5786 14.586 63.9066 14.328 63.1626 14.328ZM79.9458 25.542C80.1498 25.842 80.3718 26.082 80.6118 26.262C80.8638 26.43 81.1698 26.556 81.5298 26.64V27C80.9538 26.964 80.2338 26.946 79.3698 26.946C78.7218 26.946 78.1038 26.964 77.5158 27V26.64C77.8038 26.628 78.0138 26.592 78.1458 26.532C78.2778 26.472 78.3438 26.382 78.3438 26.262C78.3438 26.142 78.2838 25.998 78.1638 25.83L75.5358 21.87C75.1878 21.342 74.8938 21 74.6538 20.844C74.4138 20.676 74.0778 20.58 73.6458 20.556V25.092C73.6458 25.548 73.6818 25.878 73.7538 26.082C73.8258 26.286 73.9578 26.424 74.1498 26.496C74.3538 26.568 74.6718 26.616 75.1038 26.64V27C74.5518 26.964 73.7898 26.946 72.8178 26.946C71.7858 26.946 71.0178 26.964 70.5138 27V26.64C70.9458 26.616 71.2578 26.568 71.4498 26.496C71.6538 26.424 71.7918 26.286 71.8638 26.082C71.9358 25.878 71.9718 25.548 71.9718 25.092V16.164C71.9718 15.708 71.9358 15.378 71.8638 15.174C71.7918 14.97 71.6538 14.832 71.4498 14.76C71.2578 14.688 70.9458 14.64 70.5138 14.616V14.256C71.0178 14.292 71.7858 14.31 72.8178 14.31C73.7778 14.31 74.5398 14.292 75.1038 14.256V14.616C74.6718 14.64 74.3538 14.688 74.1498 14.76C73.9578 14.832 73.8258 14.97 73.7538 15.174C73.6818 15.378 73.6458 15.708 73.6458 16.164V20.196C74.5218 20.16 75.2058 19.824 75.6978 19.188L77.4258 16.992C78.0378 16.236 78.3438 15.66 78.3438 15.264C78.3438 14.844 77.9718 14.628 77.2278 14.616V14.256C77.9118 14.292 78.6018 14.31 79.2978 14.31C79.9578 14.31 80.4678 14.292 80.8278 14.256V14.616C80.4318 14.676 80.0598 14.808 79.7118 15.012C79.3638 15.204 79.0278 15.51 78.7038 15.93L75.7698 19.692L79.9458 25.542ZM98.0952 14.616C97.6752 14.64 97.3632 14.706 97.1592 14.814C96.9552 14.91 96.8172 15.078 96.7452 15.318C96.6732 15.546 96.6372 15.888 96.6372 16.344V27.09H96.2232L88.6632 15.408V24.912C88.6632 25.38 88.6992 25.728 88.7712 25.956C88.8552 26.184 89.0112 26.352 89.2392 26.46C89.4672 26.556 89.8212 26.616 90.3012 26.64V27C89.8692 26.964 89.2572 26.946 88.4652 26.946C87.7452 26.946 87.1872 26.964 86.7912 27V26.64C87.2112 26.616 87.5232 26.556 87.7272 26.46C87.9312 26.352 88.0692 26.184 88.1412 25.956C88.2132 25.716 88.2492 25.368 88.2492 24.912V16.164C88.2492 15.708 88.2132 15.378 88.1412 15.174C88.0692 14.97 87.9312 14.832 87.7272 14.76C87.5352 14.688 87.2232 14.64 86.7912 14.616V14.256C87.1872 14.292 87.7452 14.31 88.4652 14.31C89.0052 14.31 89.4732 14.292 89.8692 14.256L96.2232 24.048V16.344C96.2232 15.876 96.1812 15.528 96.0972 15.3C96.0252 15.072 95.8752 14.91 95.6472 14.814C95.4192 14.706 95.0652 14.64 94.5852 14.616V14.256C95.0172 14.292 95.6292 14.31 96.4212 14.31C97.1412 14.31 97.6992 14.292 98.0952 14.256V14.616ZM105.299 14.004C106.439 14.004 107.435 14.262 108.287 14.778C109.151 15.294 109.817 16.044 110.285 17.028C110.765 18 111.005 19.164 111.005 20.52C111.005 21.84 110.759 23.01 110.267 24.03C109.787 25.05 109.109 25.842 108.233 26.406C107.369 26.97 106.385 27.252 105.281 27.252C104.141 27.252 103.139 26.994 102.275 26.478C101.423 25.962 100.757 25.218 100.277 24.246C99.8091 23.262 99.5751 22.092 99.5751 20.736C99.5751 19.416 99.8151 18.246 100.295 17.226C100.787 16.206 101.465 15.414 102.329 14.85C103.205 14.286 104.195 14.004 105.299 14.004ZM105.227 14.328C104.459 14.328 103.781 14.598 103.193 15.138C102.617 15.666 102.167 16.41 101.843 17.37C101.531 18.33 101.375 19.428 101.375 20.664C101.375 21.912 101.549 23.01 101.897 23.958C102.257 24.906 102.737 25.638 103.337 26.154C103.937 26.67 104.609 26.928 105.353 26.928C106.121 26.928 106.793 26.664 107.369 26.136C107.957 25.596 108.407 24.846 108.719 23.886C109.043 22.926 109.205 21.828 109.205 20.592C109.205 19.344 109.025 18.246 108.665 17.298C108.317 16.35 107.843 15.618 107.243 15.102C106.643 14.586 105.971 14.328 105.227 14.328ZM126.746 14.31C127.286 14.31 127.736 14.292 128.096 14.256V14.616C127.424 14.772 126.95 15.294 126.674 16.182L123.272 27.09H123.128H122.984L119.852 17.82L116.99 27.09H116.846H116.702L112.886 15.768C112.634 15.024 112.22 14.64 111.644 14.616V14.256C112.136 14.292 112.778 14.31 113.57 14.31C114.434 14.31 115.082 14.292 115.514 14.256V14.616C115.19 14.64 114.962 14.7 114.83 14.796C114.698 14.892 114.632 15.042 114.632 15.246C114.632 15.438 114.698 15.732 114.83 16.128L117.458 24.156L119.654 17.19L119.168 15.768C118.928 15.024 118.574 14.64 118.106 14.616V14.256C118.538 14.292 119.12 14.31 119.852 14.31C120.884 14.31 121.652 14.292 122.156 14.256V14.616C121.7 14.64 121.382 14.694 121.202 14.778C121.022 14.85 120.932 15.012 120.932 15.264C120.932 15.48 120.992 15.768 121.112 16.128L123.704 24.138L125.918 17.172C126.11 16.584 126.206 16.098 126.206 15.714C126.206 15.318 126.086 15.042 125.846 14.886C125.606 14.718 125.216 14.628 124.676 14.616V14.256C125.36 14.292 126.05 14.31 126.746 14.31Z" fill="#9E6A5B"/>
<rect x="0.5" y="0.5" width="161" height="39" rx="1.5" stroke="#9E6A5B"/>
</svg>
