<svg width="175" height="33" viewBox="0 0 175 33" fill="none" xmlns="http://www.w3.org/2000/svg">
<path d="M5.19922 31.6484C4.80859 31.5703 4.37891 31.5312 3.91016 31.5312C3.19401 31.5312 2.57552 31.5638 2.05469 31.6289L3.69531 28.8945C2.08073 27.6185 1.02604 25.9844 0.53125 23.9922C0.375 23.3411 0.296875 22.6576 0.296875 21.9414C0.296875 21.2253 0.388021 20.5547 0.570312 19.9297C0.765625 19.2917 1.03255 18.7383 1.37109 18.2695C2.08724 17.2799 2.97917 16.7852 4.04688 16.7852C4.86719 16.7852 5.57031 17.1432 6.15625 17.8594C6.80729 18.6536 7.13281 19.6953 7.13281 20.9844C7.13281 22.0651 6.70964 23.6406 5.86328 25.7109C5.60286 26.349 5.3099 26.987 4.98438 27.625C8.09635 22.8203 11.3385 18.7253 14.7109 15.3398L17.3477 12.7812C17.582 12.5729 17.7708 12.4688 17.9141 12.4688C18.0573 12.4688 18.1289 12.5208 18.1289 12.625C18.1289 12.7422 17.7708 13.1458 17.0547 13.8359C16.3516 14.513 15.4857 15.4701 14.457 16.707C13.4284 17.931 12.4193 19.2396 11.4297 20.6328C9.34635 23.6016 7.56901 26.6159 6.09766 29.6758C6.91797 30.0143 7.7513 30.1836 8.59766 30.1836C10.3034 30.1836 11.7812 29.6562 13.0312 28.6016C14.2031 27.5469 14.7891 26.3815 14.7891 25.1055C14.7891 25.0404 14.776 24.9427 14.75 24.8125C14.2292 24.7865 13.9688 24.5521 13.9688 24.1094C13.9688 23.9661 14.0208 23.8359 14.125 23.7188C14.2422 23.6016 14.4115 23.543 14.6328 23.543C14.8542 23.543 15.0495 23.6536 15.2188 23.875C15.388 24.0964 15.4727 24.513 15.4727 25.125C15.4727 25.737 15.2839 26.4076 14.9062 27.1367C14.5286 27.8659 14.0078 28.4974 13.3438 29.0312C11.9766 30.151 10.388 30.7109 8.57812 30.7109C7.67969 30.7109 6.77474 30.5286 5.86328 30.1641L5.19922 31.6484ZM3.98828 28.3281C5.69401 25.1641 6.54688 22.6445 6.54688 20.7695C6.54688 19.2852 6.0651 18.2891 5.10156 17.7812C4.82812 17.638 4.52865 17.5664 4.20312 17.5664C3.89062 17.5664 3.55859 17.6901 3.20703 17.9375C2.86849 18.1849 2.5625 18.5104 2.28906 18.9141C1.70312 19.8255 1.41016 20.8932 1.41016 22.1172C1.41016 24.6562 2.26953 26.7266 3.98828 28.3281ZM52.7578 28.1133C50.9089 28.1133 49.1901 27.8659 47.6016 27.3711C45.7786 28.8815 44.4115 29.9297 43.5 30.5156C41.8073 31.5703 40.082 32.0977 38.3242 32.0977C36.319 32.0977 35.0234 31.5182 34.4375 30.3594C34.2682 30.0078 34.1836 29.6628 34.1836 29.3242C34.1836 28.9857 34.2422 28.7122 34.3594 28.5039C34.4766 28.2956 34.6198 28.1328 34.7891 28.0156C35.1406 27.7682 35.5508 27.6445 36.0195 27.6445C36.6706 27.6445 36.9961 27.9375 36.9961 28.5234C36.9961 28.7839 36.8919 29.0117 36.6836 29.207C36.4622 29.3893 36.1693 29.4805 35.8047 29.4805C35.4271 29.4805 35.1471 29.4154 34.9648 29.2852V29.4219C34.9648 30.8542 36.1367 31.5703 38.4805 31.5703C40.1081 31.5703 41.9505 30.8542 44.0078 29.4219L46.918 27.1367C45.069 26.4466 43.5911 25.4701 42.4844 24.207C41.4167 23.0091 40.8438 21.6875 40.7656 20.2422C40.6875 18.8229 41.1562 17.612 42.1719 16.6094C43.2396 15.5547 44.6849 15.0273 46.5078 15.0273C49.0469 15.0273 51.1823 16.1146 52.9141 18.2891C53.4349 18.9531 53.8776 19.6628 54.2422 20.418C58.4219 16.4076 61.1562 13.8294 62.4453 12.6836L65.6484 9.91016C69.9714 6.35547 73.1549 4.57812 75.1992 4.57812C75.4336 4.57812 75.5508 4.61719 75.5508 4.69531C75.5508 4.78646 75.4401 4.87109 75.2188 4.94922C75.0104 5.02734 74.776 5.19661 74.5156 5.45703C74.2552 5.71745 73.8776 6.15365 73.3828 6.76562L71.4688 9.20703L58.2461 26.7852C61.8789 25.7044 64.7109 23.7708 66.7422 20.9844C67.3932 20.099 67.8294 19.3568 68.0508 18.7578C68.3503 17.9635 68.5326 17.5664 68.5977 17.5664C68.6367 17.5664 68.6953 17.625 68.7734 17.7422C68.8646 17.8464 68.8971 18.0807 68.8711 18.4453C68.8581 18.7969 68.7669 19.2201 68.5977 19.7148C68.4284 20.1966 68.2135 20.6589 67.9531 21.1016C67.5234 21.8438 66.8138 22.6836 65.8242 23.6211C63.832 25.5612 61.0977 26.8893 57.6211 27.6055L54.2812 32.0195L53.0312 31.9414C52.6146 31.9154 52.2826 31.9023 52.0352 31.9023C51.8008 31.9023 51.599 31.9154 51.4297 31.9414L50.8828 32.0195L53.7734 28.4453C53.8125 28.3802 53.8516 28.3216 53.8906 28.2695C53.9297 28.2044 53.9622 28.1393 53.9883 28.0742C53.5716 28.1003 53.1615 28.1133 52.7578 28.1133ZM54.5156 21.0234C55.0495 22.3906 55.3164 23.5625 55.3164 24.5391C55.3164 25.5156 55.2383 26.2839 55.082 26.8438L62.3281 18.0742C67.1068 12.5143 70.069 9.12891 71.2148 7.91797C72.3607 6.69401 73.207 5.82812 73.7539 5.32031L72.4453 5.86719C70.6875 6.63542 68.1745 8.43229 64.9062 11.2578L60.8047 14.9688L54.5156 21.0234ZM47.3867 26.7461C49.9258 24.4805 52.0612 22.5078 53.793 20.8281C52.7122 18.3672 51.0651 16.7526 48.8516 15.9844C48.1094 15.737 47.3802 15.6133 46.6641 15.6133C45.9609 15.6133 45.3294 15.7435 44.7695 16.0039C44.2227 16.2513 43.7409 16.5833 43.3242 17C42.4258 17.8984 41.9766 18.9661 41.9766 20.2031C41.9766 22.3776 42.9922 24.168 45.0234 25.5742C45.7005 26.043 46.4883 26.4336 47.3867 26.7461ZM48.0703 26.9609C49.5026 27.3646 51.1042 27.5664 52.875 27.5664C53.3307 27.5664 53.7865 27.5469 54.2422 27.5078C54.5417 26.7396 54.6914 25.9974 54.6914 25.2812C54.6914 23.9531 54.4766 22.6836 54.0469 21.4727C51.1172 24.2331 49.125 26.0625 48.0703 26.9609ZM75.2578 30.3203C74.4375 30.8411 73.5456 31.2708 72.582 31.6094C71.6315 31.9479 70.7266 32.1172 69.8672 32.1172C69.0078 32.1172 68.3503 32.0326 67.8945 31.8633C67.4518 31.681 67.0872 31.4336 66.8008 31.1211C65.5768 29.793 65.5833 27.8333 66.8203 25.2422C67.3542 24.0964 68.1615 23.0547 69.2422 22.1172C70.3229 21.1667 71.2734 20.457 72.0938 19.9883C73.6823 19.0768 75.1732 18.6211 76.5664 18.6211C77.9466 18.6211 78.6693 19.0508 78.7344 19.9102C78.8255 21.3034 77.1328 22.8203 73.6562 24.4609C72.3802 25.0599 70.7721 25.6784 68.832 26.3164C68.0638 27.5664 67.6797 28.5885 67.6797 29.3828C67.6797 30.1641 67.8815 30.724 68.2852 31.0625C68.7018 31.388 69.3008 31.5508 70.082 31.5508C70.8763 31.5508 71.7292 31.3815 72.6406 31.043C73.5651 30.7044 74.4245 30.2747 75.2188 29.7539C76.026 29.2331 76.7552 28.6667 77.4062 28.0547C78.0573 27.4427 78.6302 26.8568 79.125 26.2969C79.6328 25.737 80.043 25.2552 80.3555 24.8516C80.681 24.4349 80.9023 24.1745 81.0195 24.0703L81.4297 24.4023C81.2604 24.5456 81 24.8385 80.6484 25.2812C80.3099 25.724 79.8737 26.2318 79.3398 26.8047C78.819 27.3646 78.2135 27.957 77.5234 28.582C76.8464 29.207 76.0911 29.7865 75.2578 30.3203ZM69.2812 25.6328C73.2135 24.2526 75.7461 22.8789 76.8789 21.5117C77.2565 21.056 77.4453 20.6133 77.4453 20.1836C77.4453 19.4544 77.1068 19.0898 76.4297 19.0898C75.2318 19.0898 73.7344 20.138 71.9375 22.2344C70.6875 23.6927 69.8021 24.8255 69.2812 25.6328ZM86.8984 28.4062C87.0547 28.4323 87.25 28.4453 87.4844 28.4453C87.7318 28.4453 88.0247 28.3542 88.3633 28.1719C88.7018 27.9896 89.0469 27.7552 89.3984 27.4688C89.763 27.1823 90.1211 26.8698 90.4727 26.5312C90.8242 26.1797 91.1432 25.8477 91.4297 25.5352C91.7292 25.2096 91.9896 24.9167 92.2109 24.6562L92.6602 24.0703L93.0898 24.4023C92.9336 24.5586 92.7318 24.7734 92.4844 25.0469L91.6641 25.9844C89.8542 27.9375 88.4219 28.9141 87.3672 28.9141H87.0352C86.931 28.9141 86.8268 28.901 86.7227 28.875C85.6289 31.2578 83.3047 32.4492 79.75 32.4492C78.2005 32.4492 77.0742 32.0781 76.3711 31.3359C76.0716 31.0104 75.9219 30.5938 75.9219 30.0859C75.9219 29.5781 76.0456 29.1484 76.293 28.7969C76.5273 28.4323 76.8073 28.1328 77.1328 27.8984C77.7969 27.4167 78.3958 27.1758 78.9297 27.1758C79.4505 27.1758 79.7109 27.4232 79.7109 27.918C79.6719 28.2565 79.3854 28.5104 78.8516 28.6797C78.6823 28.7318 78.5195 28.7578 78.3633 28.7578C78.194 28.7578 78.0378 28.7057 77.8945 28.6016C77.7383 28.4844 77.6146 28.3997 77.5234 28.3477C77.4453 28.4258 77.3477 28.5169 77.2305 28.6211C77.1003 28.7253 76.9766 28.849 76.8594 28.9922C76.5729 29.3438 76.4297 29.7083 76.4297 30.0859C76.4297 30.4505 76.5534 30.7435 76.8008 30.9648C77.0482 31.1862 77.3411 31.3555 77.6797 31.4727C78.1875 31.6549 78.7214 31.7461 79.2812 31.7461C79.8281 31.7461 80.3945 31.6289 80.9805 31.3945C81.5794 31.1602 82.1654 30.7695 82.7383 30.2227C84.3138 28.7253 85.1667 26.5052 85.2969 23.5625C85.375 21.5833 85.6159 20.0339 86.0195 18.9141C86.0326 18.875 86.0391 18.8164 86.0391 18.7383L81.4297 24.4023C81.1693 24.7148 80.9805 24.9167 80.8633 25.0078C80.7331 25.099 80.668 25.1445 80.668 25.1445C80.5117 25.1576 80.4076 25.1185 80.3555 25.0273C80.3294 24.9622 80.388 24.8385 80.5312 24.6562C83.8906 20.6458 85.7786 18.3672 86.1953 17.8203C86.4036 16.8047 86.7422 16.2969 87.2109 16.2969C87.4323 16.2969 87.6146 16.3555 87.7578 16.4727C87.9141 16.5898 87.9922 16.7396 87.9922 16.9219C87.9792 17.1693 87.7773 17.5208 87.3867 17.9766C87.0091 18.4193 86.7747 18.7057 86.6836 18.8359C86.6055 18.9531 86.5534 19.0573 86.5273 19.1484C86.5013 19.2266 86.4883 19.3047 86.4883 19.3828V19.6172C86.4753 19.9688 86.5078 20.3854 86.5859 20.8672L87.0742 24.1094C87.3607 25.8802 87.3021 27.3125 86.8984 28.4062ZM90.5703 30.8672C90.5703 31.2578 90.8828 31.4596 91.5078 31.4727C92.1328 31.4857 92.7578 31.349 93.3828 31.0625C94.0208 30.776 94.6523 30.4115 95.2773 29.9688C95.9023 29.526 96.5078 29.0312 97.0938 28.4844C97.6797 27.9245 98.2266 27.3711 98.7344 26.8242C99.2422 26.2773 99.6979 25.763 100.102 25.2812L101.117 24.0703L101.547 24.4023L100.531 25.5742C96.8984 29.8841 93.8451 32.0391 91.3711 32.0391C90.6549 32.0391 90.1211 31.8958 89.7695 31.6094C89.4049 31.3229 89.2227 31.0104 89.2227 30.6719C89.2227 30.3333 89.2422 30.0534 89.2812 29.832C89.3073 29.6107 89.3724 29.3698 89.4766 29.1094C89.5807 28.8359 89.737 28.5169 89.9453 28.1523C90.1406 27.7878 90.4076 27.3451 90.7461 26.8242L93.793 22.4297L98.832 15.3398H97.2891C96.8984 15.3398 96.7031 15.2487 96.7031 15.0664C96.7031 14.8711 96.9505 14.7734 97.4453 14.7734H99.2227L102.836 9.69531C103.747 9.83854 104.652 9.83854 105.551 9.69531L101.781 14.7734H106.82C107.185 14.7734 107.367 14.8711 107.367 15.0664C107.367 15.2487 107.204 15.3398 106.879 15.3398H101.352L93.2656 26.3359C91.8724 28.3021 91.0781 29.513 90.8828 29.9688C90.6745 30.4245 90.5703 30.724 90.5703 30.8672ZM98.7734 31.6289C98.4219 31.5638 98.0312 31.5312 97.6016 31.5312C96.8594 31.5312 96.2474 31.5964 95.7656 31.7266L117.387 0.847656C118.259 0.977865 119.164 0.977865 120.102 0.847656L100.727 27.7422L100.824 27.957C101.814 26.8112 102.732 25.7956 103.578 24.9102L105.902 22.5664C107.23 21.2773 108.305 20.3659 109.125 19.832C110.362 19.0247 111.534 18.6211 112.641 18.6211C113.799 18.6211 114.529 19.0378 114.828 19.8711C115.414 21.4857 113.585 24.5716 109.34 29.1289L108.578 29.9688C108.161 30.4375 107.953 30.7956 107.953 31.043C107.953 31.1732 108.096 31.2839 108.383 31.375C108.669 31.4531 109.073 31.4922 109.594 31.4922C110.115 31.4922 110.727 31.3294 111.43 31.0039C112.133 30.6654 112.816 30.2422 113.48 29.7344C114.145 29.2266 114.776 28.6667 115.375 28.0547C115.974 27.4427 116.508 26.8633 116.977 26.3164C117.458 25.7695 117.862 25.2878 118.188 24.8711C118.513 24.4544 118.734 24.1875 118.852 24.0703L119.281 24.4023C119.151 24.5456 118.91 24.832 118.559 25.2617C118.22 25.6914 117.797 26.1927 117.289 26.7656C116.794 27.3255 116.228 27.918 115.59 28.543C114.965 29.168 114.294 29.7344 113.578 30.2422C111.938 31.4401 110.447 32.0391 109.105 32.0391C108.038 32.0391 107.25 31.7461 106.742 31.1602C106.586 30.9779 106.508 30.763 106.508 30.5156C106.508 30.2682 106.54 29.9883 106.605 29.6758C106.684 29.3503 106.866 28.9401 107.152 28.4453C107.816 27.3255 108.695 26.1536 109.789 24.9297C110.883 23.6927 111.605 22.8529 111.957 22.4102C112.309 21.9674 112.589 21.5833 112.797 21.2578C113.188 20.6328 113.383 20.151 113.383 19.8125C113.383 19.3438 113.077 19.1094 112.465 19.1094C111.645 19.1094 110.701 19.474 109.633 20.2031C107.042 21.9349 104.021 24.9492 100.57 29.2461L98.7734 31.6289ZM126.273 30.3203C125.453 30.8411 124.561 31.2708 123.598 31.6094C122.647 31.9479 121.742 32.1172 120.883 32.1172C120.023 32.1172 119.366 32.0326 118.91 31.8633C118.467 31.681 118.103 31.4336 117.816 31.1211C116.592 29.793 116.599 27.8333 117.836 25.2422C118.37 24.0964 119.177 23.0547 120.258 22.1172C121.339 21.1667 122.289 20.457 123.109 19.9883C124.698 19.0768 126.189 18.6211 127.582 18.6211C128.962 18.6211 129.685 19.0508 129.75 19.9102C129.841 21.3034 128.148 22.8203 124.672 24.4609C123.396 25.0599 121.788 25.6784 119.848 26.3164C119.079 27.5664 118.695 28.5885 118.695 29.3828C118.695 30.1641 118.897 30.724 119.301 31.0625C119.717 31.388 120.316 31.5508 121.098 31.5508C121.892 31.5508 122.745 31.3815 123.656 31.043C124.581 30.7044 125.44 30.2747 126.234 29.7539C127.042 29.2331 127.771 28.6667 128.422 28.0547C129.073 27.4427 129.646 26.8568 130.141 26.2969C130.648 25.737 131.059 25.2552 131.371 24.8516C131.697 24.4349 131.918 24.1745 132.035 24.0703L132.445 24.4023C132.276 24.5456 132.016 24.8385 131.664 25.2812C131.326 25.724 130.889 26.2318 130.355 26.8047C129.835 27.3646 129.229 27.957 128.539 28.582C127.862 29.207 127.107 29.7865 126.273 30.3203ZM120.297 25.6328C124.229 24.2526 126.762 22.8789 127.895 21.5117C128.272 21.056 128.461 20.6133 128.461 20.1836C128.461 19.4544 128.122 19.0898 127.445 19.0898C126.247 19.0898 124.75 20.138 122.953 22.2344C121.703 23.6927 120.818 24.8255 120.297 25.6328ZM129.945 30.8672C129.945 31.2578 130.258 31.4596 130.883 31.4727C131.508 31.4857 132.133 31.349 132.758 31.0625C133.396 30.776 134.027 30.4115 134.652 29.9688C135.277 29.526 135.883 29.0312 136.469 28.4844C137.055 27.9245 137.602 27.3711 138.109 26.8242C138.617 26.2773 139.073 25.763 139.477 25.2812L140.492 24.0703L140.922 24.4023L139.906 25.5742C136.273 29.8841 133.22 32.0391 130.746 32.0391C130.03 32.0391 129.496 31.8958 129.145 31.6094C128.78 31.3229 128.598 31.0104 128.598 30.6719C128.598 30.3333 128.617 30.0534 128.656 29.832C128.682 29.6107 128.747 29.3698 128.852 29.1094C128.956 28.8359 129.112 28.5169 129.32 28.1523C129.516 27.7878 129.783 27.3451 130.121 26.8242L133.168 22.4297L138.207 15.3398H136.664C136.273 15.3398 136.078 15.2487 136.078 15.0664C136.078 14.8711 136.326 14.7734 136.82 14.7734H138.598L142.211 9.69531C143.122 9.83854 144.027 9.83854 144.926 9.69531L141.156 14.7734H146.195C146.56 14.7734 146.742 14.8711 146.742 15.0664C146.742 15.2487 146.579 15.3398 146.254 15.3398H140.727L132.641 26.3359C131.247 28.3021 130.453 29.513 130.258 29.9688C130.049 30.4245 129.945 30.724 129.945 30.8672ZM150.707 14.3438C150.525 14.513 150.316 14.6497 150.082 14.7539C149.848 14.8451 149.581 14.8906 149.281 14.8906C148.982 14.8906 148.721 14.7799 148.5 14.5586C148.292 14.3242 148.188 14.0638 148.188 13.7773C148.188 13.4909 148.24 13.237 148.344 13.0156C148.448 12.7943 148.591 12.599 148.773 12.4297C149.151 12.0391 149.561 11.8438 150.004 11.8438C150.46 11.8438 150.792 11.9674 151 12.2148C151.221 12.4492 151.332 12.7096 151.332 12.9961C151.332 13.2826 151.273 13.5365 151.156 13.7578C151.052 13.9792 150.902 14.1745 150.707 14.3438ZM138.305 30.8867C138.305 31.2904 138.689 31.4922 139.457 31.4922C140.225 31.4922 140.948 31.3164 141.625 30.9648C142.315 30.6133 143.005 30.1771 143.695 29.6562C144.398 29.1224 145.076 28.543 145.727 27.918L147.484 26.1602C148.005 25.6133 148.435 25.1445 148.773 24.7539C149.112 24.3503 149.314 24.1159 149.379 24.0508L149.77 24.4023C149.639 24.5326 149.392 24.8125 149.027 25.2422C148.676 25.6589 148.233 26.1536 147.699 26.7266C147.165 27.2865 146.566 27.8789 145.902 28.5039C145.238 29.1289 144.542 29.7018 143.812 30.2227C142.133 31.4336 140.661 32.0391 139.398 32.0391C138.591 32.0391 137.947 31.8958 137.465 31.6094C136.983 31.3099 136.742 30.9714 136.742 30.5938C136.742 30.2161 136.781 29.8776 136.859 29.5781C136.938 29.2786 137.081 28.9206 137.289 28.5039C137.497 28.0872 137.79 27.599 138.168 27.0391C138.533 26.4792 139.014 25.8086 139.613 25.0273C140.199 24.2461 140.915 23.3411 141.762 22.3125L144.77 18.7578C144.926 18.7969 145.245 18.8164 145.727 18.8164H146.645C146.983 18.8164 147.257 18.8034 147.465 18.7773C143.155 23.9206 140.733 26.8503 140.199 27.5664C139.652 28.2695 139.249 28.8229 138.988 29.2266C138.533 29.9167 138.305 30.4701 138.305 30.8867ZM159.32 20.2617C159.294 19.5065 158.819 19.1289 157.895 19.1289C156.007 19.1289 153.565 21.0951 150.57 25.0273C149.333 26.668 148.715 28.1523 148.715 29.4805C148.715 30.0534 148.871 30.4896 149.184 30.7891C149.73 31.2969 150.427 31.5508 151.273 31.5508C152.133 31.5508 153.038 31.375 153.988 31.0234C154.952 30.6719 155.844 30.2292 156.664 29.6953C157.484 29.1615 158.233 28.582 158.91 27.957C159.587 27.319 160.173 26.7266 160.668 26.1797C161.163 25.6198 161.553 25.1445 161.84 24.7539C162.126 24.3633 162.296 24.1354 162.348 24.0703L162.777 24.4023L162.25 25.1055C159.802 28.3216 157.068 30.4766 154.047 31.5703C153.031 31.9349 152.074 32.1172 151.176 32.1172C150.277 32.1172 149.574 32.026 149.066 31.8438C148.559 31.6615 148.135 31.4141 147.797 31.1016C147.146 30.4635 146.82 29.6693 146.82 28.7188C146.82 26.8568 147.628 24.9622 149.242 23.0352C150.505 21.5247 152.003 20.3659 153.734 19.5586C155.141 18.9076 156.508 18.5951 157.836 18.6211C159.008 18.6602 159.75 19.0573 160.062 19.8125C160.375 20.5807 160.206 21.2839 159.555 21.9219C159.125 22.3646 158.708 22.5859 158.305 22.5859C157.367 22.5859 156.885 22.2018 156.859 21.4336C156.846 21.069 156.983 20.7695 157.27 20.5352C157.569 20.2878 157.862 20.151 158.148 20.125C158.565 20.099 158.956 20.1706 159.32 20.3398V20.2617ZM168.266 28.4062C168.422 28.4323 168.617 28.4453 168.852 28.4453C169.099 28.4453 169.392 28.3542 169.73 28.1719C170.069 27.9896 170.414 27.7552 170.766 27.4688C171.13 27.1823 171.488 26.8698 171.84 26.5312C172.191 26.1797 172.51 25.8477 172.797 25.5352C173.096 25.2096 173.357 24.9167 173.578 24.6562L174.027 24.0703L174.457 24.4023C174.301 24.5586 174.099 24.7734 173.852 25.0469L173.031 25.9844C171.221 27.9375 169.789 28.9141 168.734 28.9141H168.402C168.298 28.9141 168.194 28.901 168.09 28.875C166.996 31.2578 164.672 32.4492 161.117 32.4492C159.568 32.4492 158.441 32.0781 157.738 31.3359C157.439 31.0104 157.289 30.5938 157.289 30.0859C157.289 29.5781 157.413 29.1484 157.66 28.7969C157.895 28.4323 158.174 28.1328 158.5 27.8984C159.164 27.4167 159.763 27.1758 160.297 27.1758C160.818 27.1758 161.078 27.4232 161.078 27.918C161.039 28.2565 160.753 28.5104 160.219 28.6797C160.049 28.7318 159.887 28.7578 159.73 28.7578C159.561 28.7578 159.405 28.7057 159.262 28.6016C159.105 28.4844 158.982 28.3997 158.891 28.3477C158.812 28.4258 158.715 28.5169 158.598 28.6211C158.467 28.7253 158.344 28.849 158.227 28.9922C157.94 29.3438 157.797 29.7083 157.797 30.0859C157.797 30.4505 157.921 30.7435 158.168 30.9648C158.415 31.1862 158.708 31.3555 159.047 31.4727C159.555 31.6549 160.089 31.7461 160.648 31.7461C161.195 31.7461 161.762 31.6289 162.348 31.3945C162.947 31.1602 163.533 30.7695 164.105 30.2227C165.681 28.7253 166.534 26.5052 166.664 23.5625C166.742 21.5833 166.983 20.0339 167.387 18.9141C167.4 18.875 167.406 18.8164 167.406 18.7383L162.797 24.4023C162.536 24.7148 162.348 24.9167 162.23 25.0078C162.1 25.099 162.035 25.1445 162.035 25.1445C161.879 25.1576 161.775 25.1185 161.723 25.0273C161.697 24.9622 161.755 24.8385 161.898 24.6562C165.258 20.6458 167.146 18.3672 167.562 17.8203C167.771 16.8047 168.109 16.2969 168.578 16.2969C168.799 16.2969 168.982 16.3555 169.125 16.4727C169.281 16.5898 169.359 16.7396 169.359 16.9219C169.346 17.1693 169.145 17.5208 168.754 17.9766C168.376 18.4193 168.142 18.7057 168.051 18.8359C167.973 18.9531 167.921 19.0573 167.895 19.1484C167.868 19.2266 167.855 19.3047 167.855 19.3828V19.6172C167.842 19.9688 167.875 20.3854 167.953 20.8672L168.441 24.1094C168.728 25.8802 168.669 27.3125 168.266 28.4062Z" fill="#9E6A5B"/>
</svg>
