<svg width="435" height="66" viewBox="0 0 435 66" fill="none" xmlns="http://www.w3.org/2000/svg">
<path d="M17.5859 39.6914C15.5286 40.5898 13.276 41.0391 10.8281 41.0391C8.74479 41.0391 7.39714 40.7005 6.78516 40.0234C6.61589 39.8281 6.53125 39.6068 6.53125 39.3594C6.53125 39.112 6.63542 38.8646 6.84375 38.6172C7.05208 38.3698 7.35156 38.1615 7.74219 37.9922C8.52344 37.6276 9.66927 37.4453 11.1797 37.4453C12.6771 37.4453 14.7148 37.901 17.293 38.8125C19.1419 37.6016 21.4076 35.1667 24.0898 31.5078C21.4336 31.4297 19.2656 30.8438 17.5859 29.75C15.9453 28.6693 15.125 27.276 15.125 25.5703C15.125 23.8646 15.9062 22.2891 17.4688 20.8438C19.0573 19.3724 20.8346 18.6367 22.8008 18.6367C23.0872 18.6367 23.2305 18.7148 23.2305 18.8711C23.2305 18.9883 22.8724 19.0859 22.1562 19.1641C21.4401 19.2292 20.7044 19.457 19.9492 19.8477C19.207 20.2383 18.5885 20.7135 18.0938 21.2734C17.0911 22.4062 16.5898 23.5781 16.5898 24.7891C16.5898 26 16.7721 26.9701 17.1367 27.6992C17.5143 28.4284 18.0482 29.0339 18.7383 29.5156C20.0924 30.4401 22.013 30.9154 24.5 30.9414L27.1562 27.0938C30.3854 22.276 33.3542 18.8125 36.0625 16.7031C38.7057 14.6589 41.4466 13.6367 44.2852 13.6367C45.7956 13.6367 46.7982 14.099 47.293 15.0234C47.4492 15.3229 47.5273 15.7331 47.5273 16.2539C47.5273 16.7747 47.3516 17.4193 47 18.1875C46.6615 18.9427 46.1797 19.7174 45.5547 20.5117C44.9427 21.306 44.2135 22.1003 43.3672 22.8945C42.5208 23.6888 41.5964 24.457 40.5938 25.1992C39.5911 25.9414 38.5234 26.6445 37.3906 27.3086C36.2708 27.9727 35.125 28.5781 33.9531 29.125C31.4922 30.2578 29.181 30.987 27.0195 31.3125C24.1549 35.1406 21.3099 37.7904 18.4844 39.2617C20.8542 40.1081 23.6862 40.5312 26.9805 40.5312C29.8971 40.5312 32.026 39.8607 33.3672 38.5195C33.5625 38.3242 33.6862 38.2852 33.7383 38.4023C33.8294 38.6107 33.7318 38.8581 33.4453 39.1445C31.6615 40.707 29.5716 41.4883 27.1758 41.4883C24.7799 41.4883 21.5833 40.8893 17.5859 39.6914ZM27.4883 30.6875C30.2227 30.2188 33.1198 29.099 36.1797 27.3281C38.9922 25.7135 41.3555 23.8385 43.2695 21.7031C45.2357 19.5286 46.2188 17.5885 46.2188 15.8828C46.2188 15.1276 45.8021 14.5807 44.9688 14.2422C44.7214 14.138 44.4544 14.0859 44.168 14.0859C40.0273 14.0859 35.9844 17.3281 32.0391 23.8125L29.6953 27.4844C28.9531 28.6302 28.2174 29.6979 27.4883 30.6875ZM11.0625 38.4414C8.40625 38.4414 7.07812 38.7669 7.07812 39.418C7.07812 39.8607 7.7487 40.2057 9.08984 40.4531C9.51953 40.5312 10.151 40.5703 10.9844 40.5703C13.0938 40.5703 14.9036 40.1602 16.4141 39.3398C14.1484 38.7409 12.3646 38.4414 11.0625 38.4414ZM46.1211 41.0391C44.819 41.0391 44.168 40.6354 44.168 39.8281C44.168 39.1641 44.5456 38.3307 45.3008 37.3281L46.5312 35.7656L46.3359 35.6875C44.1484 38.3828 42.0846 40.0755 40.1445 40.7656C39.6107 40.9479 39.1484 41.0391 38.7578 41.0391C37.1562 41.0391 36.3555 40.1862 36.3555 38.4805C36.3555 36.4753 37.1562 34.5612 38.7578 32.7383C41.1276 29.9779 43.5104 28.3438 45.9062 27.8359C46.6224 27.6927 47.2344 27.6211 47.7422 27.6211C48.25 27.6211 48.6471 27.6602 48.9336 27.7383C49.2331 27.8034 49.4935 27.901 49.7148 28.0312C50.1836 28.3307 50.418 28.7018 50.418 29.1445C50.418 29.5742 50.3398 29.9844 50.1836 30.375L52.0977 28.0117C52.4492 28.1159 52.7747 28.168 53.0742 28.168C53.8424 28.168 54.3958 28.1419 54.7344 28.0898L48.1523 36.0195C46.5898 37.8424 45.8086 39.125 45.8086 39.8672C45.8086 40.2839 46.056 40.4922 46.5508 40.4922C47.0456 40.4922 47.612 40.3424 48.25 40.043C48.901 39.7435 49.5456 39.3594 50.1836 38.8906C50.8216 38.4219 51.4401 37.901 52.0391 37.3281C52.651 36.7552 53.2109 36.1953 53.7188 35.6484C54.2396 35.1016 54.6953 34.5938 55.0859 34.125L56.0234 33.0703L56.4336 33.4023L55.4375 34.5352C51.6875 38.8711 48.582 41.0391 46.1211 41.0391ZM40.7109 34.0078C38.875 36.2344 37.957 38.0573 37.957 39.4766C37.957 40.1276 38.25 40.4531 38.8359 40.4531C40.737 40.4531 43.4779 38.3503 47.0586 34.1445L48.6992 32.1719C49.4805 30.987 49.8711 30.1276 49.8711 29.5938C49.8711 28.6823 49.4154 28.2266 48.5039 28.2266C47.2669 28.2266 45.4896 29.2812 43.1719 31.3906C42.3776 32.1198 41.5573 32.9922 40.7109 34.0078ZM61.9219 37.4062C62.0781 37.4323 62.2734 37.4453 62.5078 37.4453C62.7552 37.4453 63.0482 37.3542 63.3867 37.1719C63.7253 36.9896 64.0703 36.7552 64.4219 36.4688C64.7865 36.1823 65.1445 35.8698 65.4961 35.5312C65.8477 35.1797 66.1667 34.8477 66.4531 34.5352C66.7526 34.2096 67.013 33.9167 67.2344 33.6562L67.6836 33.0703L68.1133 33.4023C67.957 33.5586 67.7552 33.7734 67.5078 34.0469L66.6875 34.9844C64.8776 36.9375 63.4453 37.9141 62.3906 37.9141H62.0586C61.9544 37.9141 61.8503 37.901 61.7461 37.875C60.6523 40.2578 58.3281 41.4492 54.7734 41.4492C53.224 41.4492 52.0977 41.0781 51.3945 40.3359C51.0951 40.0104 50.9453 39.5938 50.9453 39.0859C50.9453 38.5781 51.069 38.1484 51.3164 37.7969C51.5508 37.4323 51.8307 37.1328 52.1562 36.8984C52.8203 36.4167 53.4193 36.1758 53.9531 36.1758C54.474 36.1758 54.7344 36.4232 54.7344 36.918C54.6953 37.2565 54.4089 37.5104 53.875 37.6797C53.7057 37.7318 53.543 37.7578 53.3867 37.7578C53.2174 37.7578 53.0612 37.7057 52.918 37.6016C52.7617 37.4844 52.638 37.3997 52.5469 37.3477C52.4688 37.4258 52.3711 37.5169 52.2539 37.6211C52.1237 37.7253 52 37.849 51.8828 37.9922C51.5964 38.3438 51.4531 38.7083 51.4531 39.0859C51.4531 39.4505 51.5768 39.7435 51.8242 39.9648C52.0716 40.1862 52.3646 40.3555 52.7031 40.4727C53.2109 40.6549 53.7448 40.7461 54.3047 40.7461C54.8516 40.7461 55.418 40.6289 56.0039 40.3945C56.6029 40.1602 57.1888 39.7695 57.7617 39.2227C59.3372 37.7253 60.1901 35.5052 60.3203 32.5625C60.3984 30.5833 60.6393 29.0339 61.043 27.9141C61.056 27.875 61.0625 27.8164 61.0625 27.7383L56.4531 33.4023C56.1927 33.7148 56.0039 33.9167 55.8867 34.0078C55.7565 34.099 55.6914 34.1445 55.6914 34.1445C55.5352 34.1576 55.431 34.1185 55.3789 34.0273C55.3529 33.9622 55.4115 33.8385 55.5547 33.6562C58.9141 29.6458 60.8021 27.3672 61.2188 26.8203C61.4271 25.8047 61.7656 25.2969 62.2344 25.2969C62.4557 25.2969 62.638 25.3555 62.7812 25.4727C62.9375 25.5898 63.0156 25.7396 63.0156 25.9219C63.0026 26.1693 62.8008 26.5208 62.4102 26.9766C62.0326 27.4193 61.7982 27.7057 61.707 27.8359C61.6289 27.9531 61.5768 28.0573 61.5508 28.1484C61.5247 28.2266 61.5117 28.3047 61.5117 28.3828V28.6172C61.4987 28.9688 61.5312 29.3854 61.6094 29.8672L62.0977 33.1094C62.3841 34.8802 62.3255 36.3125 61.9219 37.4062ZM65.3203 40.6289C64.9688 40.5638 64.5781 40.5312 64.1484 40.5312C63.4062 40.5312 62.7943 40.5964 62.3125 40.7266L83.9336 9.84766C84.806 9.97786 85.7109 9.97786 86.6484 9.84766L67.2734 36.7422L67.3711 36.957C68.3607 35.8112 69.2786 34.7956 70.125 33.9102L72.4492 31.5664C73.7773 30.2773 74.8516 29.3659 75.6719 28.832C76.9089 28.0247 78.0807 27.6211 79.1875 27.6211C80.3464 27.6211 81.0755 28.0378 81.375 28.8711C81.9609 30.4857 80.1315 33.5716 75.8867 38.1289L75.125 38.9688C74.7083 39.4375 74.5 39.7956 74.5 40.043C74.5 40.1732 74.6432 40.2839 74.9297 40.375C75.2161 40.4531 75.6198 40.4922 76.1406 40.4922C76.6615 40.4922 77.2734 40.3294 77.9766 40.0039C78.6797 39.6654 79.3633 39.2422 80.0273 38.7344C80.6914 38.2266 81.3229 37.6667 81.9219 37.0547C82.5208 36.4427 83.0547 35.8633 83.5234 35.3164C84.0052 34.7695 84.4089 34.2878 84.7344 33.8711C85.0599 33.4544 85.2812 33.1875 85.3984 33.0703L85.8281 33.4023C85.6979 33.5456 85.457 33.832 85.1055 34.2617C84.7669 34.6914 84.3438 35.1927 83.8359 35.7656C83.3411 36.3255 82.7747 36.918 82.1367 37.543C81.5117 38.168 80.8411 38.7344 80.125 39.2422C78.4844 40.4401 76.9935 41.0391 75.6523 41.0391C74.5846 41.0391 73.7969 40.7461 73.2891 40.1602C73.1328 39.9779 73.0547 39.763 73.0547 39.5156C73.0547 39.2682 73.0872 38.9883 73.1523 38.6758C73.2305 38.3503 73.4128 37.9401 73.6992 37.4453C74.3633 36.3255 75.2422 35.1536 76.3359 33.9297C77.4297 32.6927 78.1523 31.8529 78.5039 31.4102C78.8555 30.9674 79.1354 30.5833 79.3438 30.2578C79.7344 29.6328 79.9297 29.151 79.9297 28.8125C79.9297 28.3438 79.6237 28.1094 79.0117 28.1094C78.1914 28.1094 77.2474 28.474 76.1797 29.2031C73.5885 30.9349 70.5677 33.9492 67.1172 38.2461L65.3203 40.6289ZM92.8203 39.3203C92 39.8411 91.1081 40.2708 90.1445 40.6094C89.194 40.9479 88.2891 41.1172 87.4297 41.1172C86.5703 41.1172 85.9128 41.0326 85.457 40.8633C85.0143 40.681 84.6497 40.4336 84.3633 40.1211C83.1393 38.793 83.1458 36.8333 84.3828 34.2422C84.9167 33.0964 85.724 32.0547 86.8047 31.1172C87.8854 30.1667 88.8359 29.457 89.6562 28.9883C91.2448 28.0768 92.7357 27.6211 94.1289 27.6211C95.5091 27.6211 96.2318 28.0508 96.2969 28.9102C96.388 30.3034 94.6953 31.8203 91.2188 33.4609C89.9427 34.0599 88.3346 34.6784 86.3945 35.3164C85.6263 36.5664 85.2422 37.5885 85.2422 38.3828C85.2422 39.1641 85.444 39.724 85.8477 40.0625C86.2643 40.388 86.8633 40.5508 87.6445 40.5508C88.4388 40.5508 89.2917 40.3815 90.2031 40.043C91.1276 39.7044 91.987 39.2747 92.7812 38.7539C93.5885 38.2331 94.3177 37.6667 94.9688 37.0547C95.6198 36.4427 96.1927 35.8568 96.6875 35.2969C97.1953 34.737 97.6055 34.2552 97.918 33.8516C98.2435 33.4349 98.4648 33.1745 98.582 33.0703L98.9922 33.4023C98.8229 33.5456 98.5625 33.8385 98.2109 34.2812C97.8724 34.724 97.4362 35.2318 96.9023 35.8047C96.3815 36.3646 95.776 36.957 95.0859 37.582C94.4089 38.207 93.6536 38.7865 92.8203 39.3203ZM86.8438 34.6328C90.776 33.2526 93.3086 31.8789 94.4414 30.5117C94.819 30.056 95.0078 29.6133 95.0078 29.1836C95.0078 28.4544 94.6693 28.0898 93.9922 28.0898C92.7943 28.0898 91.2969 29.138 89.5 31.2344C88.25 32.6927 87.3646 33.8255 86.8438 34.6328ZM104.461 37.4062C104.617 37.4323 104.812 37.4453 105.047 37.4453C105.294 37.4453 105.587 37.3542 105.926 37.1719C106.264 36.9896 106.609 36.7552 106.961 36.4688C107.326 36.1823 107.684 35.8698 108.035 35.5312C108.387 35.1797 108.706 34.8477 108.992 34.5352C109.292 34.2096 109.552 33.9167 109.773 33.6562L110.223 33.0703L110.652 33.4023C110.496 33.5586 110.294 33.7734 110.047 34.0469L109.227 34.9844C107.417 36.9375 105.984 37.9141 104.93 37.9141H104.598C104.493 37.9141 104.389 37.901 104.285 37.875C103.191 40.2578 100.867 41.4492 97.3125 41.4492C95.763 41.4492 94.6367 41.0781 93.9336 40.3359C93.6341 40.0104 93.4844 39.5938 93.4844 39.0859C93.4844 38.5781 93.6081 38.1484 93.8555 37.7969C94.0898 37.4323 94.3698 37.1328 94.6953 36.8984C95.3594 36.4167 95.9583 36.1758 96.4922 36.1758C97.013 36.1758 97.2734 36.4232 97.2734 36.918C97.2344 37.2565 96.9479 37.5104 96.4141 37.6797C96.2448 37.7318 96.082 37.7578 95.9258 37.7578C95.7565 37.7578 95.6003 37.7057 95.457 37.6016C95.3008 37.4844 95.1771 37.3997 95.0859 37.3477C95.0078 37.4258 94.9102 37.5169 94.793 37.6211C94.6628 37.7253 94.5391 37.849 94.4219 37.9922C94.1354 38.3438 93.9922 38.7083 93.9922 39.0859C93.9922 39.4505 94.1159 39.7435 94.3633 39.9648C94.6107 40.1862 94.9036 40.3555 95.2422 40.4727C95.75 40.6549 96.2839 40.7461 96.8438 40.7461C97.3906 40.7461 97.957 40.6289 98.543 40.3945C99.1419 40.1602 99.7279 39.7695 100.301 39.2227C101.876 37.7253 102.729 35.5052 102.859 32.5625C102.938 30.5833 103.178 29.0339 103.582 27.9141C103.595 27.875 103.602 27.8164 103.602 27.7383L98.9922 33.4023C98.7318 33.7148 98.543 33.9167 98.4258 34.0078C98.2956 34.099 98.2305 34.1445 98.2305 34.1445C98.0742 34.1576 97.9701 34.1185 97.918 34.0273C97.8919 33.9622 97.9505 33.8385 98.0938 33.6562C101.453 29.6458 103.341 27.3672 103.758 26.8203C103.966 25.8047 104.305 25.2969 104.773 25.2969C104.995 25.2969 105.177 25.3555 105.32 25.4727C105.477 25.5898 105.555 25.7396 105.555 25.9219C105.542 26.1693 105.34 26.5208 104.949 26.9766C104.572 27.4193 104.337 27.7057 104.246 27.8359C104.168 27.9531 104.116 28.0573 104.09 28.1484C104.064 28.2266 104.051 28.3047 104.051 28.3828V28.6172C104.038 28.9688 104.07 29.3854 104.148 29.8672L104.637 33.1094C104.923 34.8802 104.865 36.3125 104.461 37.4062ZM109.188 45.1602C109.005 45.1602 108.914 45.082 108.914 44.9258C108.914 44.7826 109.07 44.6654 109.383 44.5742C109.695 44.4831 110.04 44.3008 110.418 44.0273C110.809 43.7669 111.167 43.474 111.492 43.1484C112.247 42.4193 112.625 41.8919 112.625 41.5664C112.625 41.0846 112.573 40.7005 112.469 40.4141C112.326 39.9583 112.254 39.6003 112.254 39.3398C112.254 39.0794 112.299 38.8451 112.391 38.6367C112.482 38.4284 112.612 38.2396 112.781 38.0703C113.159 37.6536 113.608 37.4453 114.129 37.4453C114.962 37.4453 115.379 37.9466 115.379 38.9492C115.379 40.4987 114.298 42.1133 112.137 43.793C110.939 44.7044 109.956 45.1602 109.188 45.1602ZM158.25 27.7578C158.549 27.6406 158.888 27.5495 159.266 27.4844C159.656 27.4062 160.177 27.3672 160.828 27.3672C161.479 27.3672 162.156 27.543 162.859 27.8945C165.815 26.4492 167.833 24.3464 168.914 21.5859C169.305 20.6094 169.5 19.6198 169.5 18.6172C169.5 17.6146 169.227 16.7617 168.68 16.0586C168.38 16.2279 168.081 16.4167 167.781 16.625L166.844 17.2891C165.151 18.5651 163.719 19.8281 162.547 21.0781C160.568 23.1745 158.465 25.7201 156.238 28.7148C154.025 31.6966 151.766 34.1706 149.461 36.1367C147.169 38.1029 144.982 39.5156 142.898 40.375C141.766 40.8177 140.333 41.0391 138.602 41.0391C137.469 41.0391 136.492 40.7656 135.672 40.2188C134.865 39.6719 134.461 39.0078 134.461 38.2266C134.461 37.4062 134.865 36.8854 135.672 36.6641C135.88 36.612 136.089 36.5859 136.297 36.5859C136.505 36.5859 136.72 36.6576 136.941 36.8008C137.15 36.931 137.254 37.1458 137.254 37.4453C137.254 37.7318 137.15 37.9727 136.941 38.168C136.72 38.3503 136.427 38.4414 136.062 38.4414C135.685 38.4414 135.405 38.3763 135.223 38.2461V38.3633C135.223 39.0013 135.542 39.5221 136.18 39.9258C136.805 40.3294 137.527 40.5312 138.348 40.5312C139.168 40.5312 139.832 40.4727 140.34 40.3555C140.861 40.2253 141.427 39.9844 142.039 39.6328C142.651 39.2812 143.335 38.7865 144.09 38.1484C144.858 37.5104 145.763 36.6771 146.805 35.6484L150.418 31.8594L155.242 26.5859C159.812 21.4036 164.148 17.7253 168.25 15.5508C166.753 14.0534 164.279 13.3047 160.828 13.3047C156.805 13.3047 152.833 14.7826 148.914 17.7383C147.026 19.1706 145.464 20.6875 144.227 22.2891C142.977 23.9427 142.352 25.375 142.352 26.5859C142.352 27.6927 142.898 28.4023 143.992 28.7148C144.305 28.806 144.741 28.8516 145.301 28.8516C145.861 28.8516 146.57 28.7018 147.43 28.4023C148.302 28.1029 149.174 27.6797 150.047 27.1328C150.932 26.5859 151.792 25.9349 152.625 25.1797C153.458 24.4115 154.214 23.5651 154.891 22.6406C156.388 20.6484 157.286 18.5651 157.586 16.3906C157.664 15.974 157.762 15.7656 157.879 15.7656C158.009 15.7656 158.074 15.9089 158.074 16.1953C158.074 18.5911 157.384 20.8438 156.004 22.9531C154.754 24.8542 153.081 26.3906 150.984 27.5625C148.94 28.7083 146.889 29.2812 144.832 29.2812C143.478 29.2812 142.547 28.7734 142.039 27.7578C141.857 27.4193 141.766 26.8659 141.766 26.0977C141.766 25.3294 142.02 24.4049 142.527 23.3242C143.035 22.2305 143.732 21.1823 144.617 20.1797C145.516 19.1641 146.577 18.2135 147.801 17.3281C149.025 16.4427 150.346 15.668 151.766 15.0039C154.826 13.5846 158.016 12.875 161.336 12.875C164.656 12.875 167.273 13.6042 169.188 15.0625C171.141 14.125 172.768 13.6562 174.07 13.6562C174.5 13.6562 174.715 13.7214 174.715 13.8516C174.715 13.9167 174.598 13.9688 174.363 14.0078C174.129 14.0339 173.79 14.099 173.348 14.2031C172.059 14.4766 170.841 14.9128 169.695 15.5117C170.919 16.6836 171.531 18.1289 171.531 19.8477C171.531 21.5143 170.75 23.1875 169.188 24.8672C167.742 26.4167 165.945 27.6276 163.797 28.5C164.839 29.4245 165.359 30.7331 165.359 32.4258C165.359 33.8711 164.819 35.2708 163.738 36.625C162.124 38.6562 159.904 40.0169 157.078 40.707C156.167 40.9284 155.32 41.0391 154.539 41.0391C153.758 41.0391 153.159 40.974 152.742 40.8438C152.326 40.7005 151.993 40.5247 151.746 40.3164C151.29 39.9388 151.062 39.4961 151.062 38.9883C151.062 38.4674 151.199 37.9466 151.473 37.4258C151.746 36.8919 152.117 36.3646 152.586 35.8438C153.068 35.3229 153.634 34.8216 154.285 34.3398C154.936 33.8581 155.633 33.4349 156.375 33.0703C158.029 32.25 159.63 31.8398 161.18 31.8398C161.453 31.8398 161.59 31.9245 161.59 32.0938C161.59 32.263 161.316 32.3477 160.77 32.3477C160.236 32.3477 159.604 32.4453 158.875 32.6406C158.159 32.8359 157.456 33.1029 156.766 33.4414C156.076 33.7799 155.424 34.1706 154.812 34.6133C154.201 35.056 153.667 35.5182 153.211 36C152.208 37.0417 151.707 38.0052 151.707 38.8906C151.707 39.9583 152.599 40.4922 154.383 40.4922C155.633 40.4922 156.948 40.0234 158.328 39.0859C160.542 37.6016 162.052 35.5312 162.859 32.875C163.12 31.9896 163.25 31.1758 163.25 30.4336C163.25 29.6784 163.152 29.1445 162.957 28.832C161.616 29.2878 160.483 29.5156 159.559 29.5156C158.647 29.5156 158.035 29.418 157.723 29.2227C157.423 29.0273 157.273 28.8385 157.273 28.6562C157.273 28.474 157.358 28.3112 157.527 28.168C157.71 28.0117 157.951 27.875 158.25 27.7578ZM162.254 28.168C161.85 27.9336 161.375 27.8164 160.828 27.8164C160.294 27.8164 159.891 27.8359 159.617 27.875C159.357 27.9141 159.122 27.9661 158.914 28.0312C158.484 28.1484 158.27 28.2786 158.27 28.4219C158.27 28.7344 158.647 28.8906 159.402 28.8906C160.158 28.8906 161.108 28.6497 162.254 28.168ZM172.645 39.4766C172.645 40.0755 172.898 40.375 173.406 40.375C173.927 40.375 174.493 40.2188 175.105 39.9062C175.73 39.5938 176.362 39.1966 177 38.7148C177.651 38.2331 178.289 37.6992 178.914 37.1133L180.613 35.4141C181.134 34.8802 181.583 34.3984 181.961 33.9688L182.762 33.0703L183.152 33.4023C182.905 33.6237 182.573 33.9688 182.156 34.4375L180.75 36C177.573 39.3594 174.839 41.0391 172.547 41.0391C171.805 41.0391 171.206 40.8568 170.75 40.4922C170.307 40.1276 170.086 39.6393 170.086 39.0273C170.086 37.0872 172.911 34.2227 178.562 30.4336C175.802 29.9779 173.895 29.5156 172.84 29.0469C171.98 30.8177 170.659 32.6211 168.875 34.457C168.458 34.8867 168.204 35.1211 168.113 35.1602C168.009 35.1992 167.944 35.2318 167.918 35.2578C167.892 35.2708 167.872 35.2318 167.859 35.1406C167.846 35.0495 167.846 34.9844 167.859 34.9453C167.872 34.8932 167.898 34.8411 167.938 34.7891C168.549 34.099 169.116 33.4349 169.637 32.7969C170.848 31.2865 171.74 29.9453 172.312 28.7734C171.844 28.474 171.577 28.1549 171.512 27.8164C171.447 27.4779 171.447 27.1654 171.512 26.8789C171.59 26.5794 171.707 26.3125 171.863 26.0781C172.202 25.5703 172.592 25.3164 173.035 25.3164C173.855 25.3164 174.266 25.6159 174.266 26.2148C174.266 26.5143 174.207 26.7682 174.09 26.9766L173.738 27.582C173.504 27.8815 173.387 28.2266 173.387 28.6172C173.387 28.8516 173.882 29.0729 174.871 29.2812C175.874 29.4896 176.583 29.6328 177 29.7109C177.911 29.8802 178.634 29.9779 179.168 30.0039C179.533 30.0169 179.715 30.1146 179.715 30.2969C179.715 30.4141 179.5 30.6419 179.07 30.9805C178.654 31.319 178.191 31.7292 177.684 32.2109C177.176 32.6927 176.681 33.2005 176.199 33.7344C175.717 34.2552 175.262 34.7891 174.832 35.3359C174.402 35.8828 174.025 36.4102 173.699 36.918C172.996 38.0117 172.645 38.8646 172.645 39.4766ZM191.414 37.8555C190.932 37.8555 190.581 37.6602 190.359 37.2695C188.81 39.0273 187.137 40.1927 185.34 40.7656C184.741 40.9479 184.155 41.0391 183.582 41.0391C183.022 41.0391 182.54 40.974 182.137 40.8438C181.733 40.7135 181.401 40.5312 181.141 40.2969C180.086 39.3854 179.982 37.8164 180.828 35.5898C181.154 34.7174 181.577 33.9036 182.098 33.1484C182.605 32.3932 183.178 31.6966 183.816 31.0586C184.467 30.4076 185.164 29.8281 185.906 29.3203C187.586 28.1875 189.227 27.6211 190.828 27.6211C191.518 27.6211 192.111 27.8034 192.605 28.168C193.113 28.5195 193.387 29.0339 193.426 29.7109C193.465 30.375 193.426 31 193.309 31.5859C193.191 32.1719 193.016 32.7578 192.781 33.3438C192.312 34.5417 191.648 35.6745 190.789 36.7422C190.88 37.1198 191.128 37.3086 191.531 37.3086C191.948 37.3086 192.339 37.2174 192.703 37.0352C193.081 36.8398 193.452 36.6055 193.816 36.332C194.194 36.0456 194.559 35.7331 194.91 35.3945C195.275 35.043 195.607 34.7109 195.906 34.3984L196.648 33.5781C196.857 33.3307 197.007 33.1615 197.098 33.0703L197.527 33.4023C197.358 33.5586 197.143 33.7799 196.883 34.0664C196.622 34.3529 196.329 34.6589 196.004 34.9844C196.004 34.9844 195.659 35.3229 194.969 36C193.628 37.237 192.443 37.8555 191.414 37.8555ZM183.309 40.2969C183.517 40.401 183.81 40.4531 184.188 40.4531C185.034 40.4531 186.121 39.9779 187.449 39.0273C188.465 38.2982 189.37 37.4583 190.164 36.5078V36.4297C190.164 35.3229 190.581 34.4896 191.414 33.9297C191.635 33.7734 191.844 33.6628 192.039 33.5977C192.664 32.2695 192.957 31.1823 192.918 30.3359C192.84 28.9948 192.345 28.3242 191.434 28.3242C189.897 28.3242 187.742 30.056 184.969 33.5195C183.185 35.7591 182.345 37.5039 182.449 38.7539C182.449 39.4701 182.736 39.9844 183.309 40.2969ZM197.898 35.375C195.555 37.9271 194.383 39.5026 194.383 40.1016C194.383 40.362 194.533 40.4922 194.832 40.4922C195.118 40.4922 195.444 40.4401 195.809 40.3359C196.173 40.2318 196.596 40.0625 197.078 39.8281C198.094 39.3203 199.201 38.6302 200.398 37.7578C202.482 36.2214 204.188 34.6914 205.516 33.168L206.043 32.5234V32.543C207.293 31.0716 208.823 29.4701 210.633 27.7383C211.258 27.8164 211.753 27.8555 212.117 27.8555C212.846 27.8555 213.348 27.8359 213.621 27.7969L206.668 35.2188L204.617 37.5234C203.562 38.7865 203.035 39.6263 203.035 40.043C203.035 40.3424 203.224 40.4922 203.602 40.4922C203.992 40.4922 204.559 40.349 205.301 40.0625C206.056 39.763 206.87 39.3594 207.742 38.8516C210.32 37.3672 212.612 35.4141 214.617 32.9922C215.451 32.0026 215.932 31.1953 216.062 30.5703C216.193 29.9323 216.258 29.3594 216.258 28.8516C216.258 28.3307 216.382 27.888 216.629 27.5234C216.876 27.1458 217.208 26.957 217.625 26.957C218.484 26.957 218.914 27.3802 218.914 28.2266C218.914 29.6328 217.618 31.6315 215.027 34.2227C214.806 34.444 214.559 34.6784 214.285 34.9258L213.426 35.668C213.009 36.7096 213.27 37.2305 214.207 37.2305C215.522 37.2305 217.378 35.8438 219.773 33.0703L220.203 33.4023L218.973 34.6719C216.993 36.7031 215.346 37.7188 214.031 37.7188C213.51 37.7188 213.139 37.5885 212.918 37.3281C212.697 37.0547 212.638 36.6901 212.742 36.2344C210.086 38.3047 207.599 39.763 205.281 40.6094C204.513 40.8958 203.855 41.0391 203.309 41.0391C202.488 41.0391 202.078 40.6159 202.078 39.7695C202.078 38.7539 202.521 37.5169 203.406 36.0586L202.156 37.1328C199.018 39.737 196.557 41.0391 194.773 41.0391C193.927 41.0391 193.504 40.6224 193.504 39.7891C193.504 37.888 195.151 35.0885 198.445 31.3906C199.5 30.2057 200.704 28.9883 202.059 27.7383C202.566 27.8164 202.977 27.8555 203.289 27.8555H203.973C204.493 27.8555 204.852 27.8359 205.047 27.7969L200.086 32.9922L197.898 35.375ZM225.672 37.4062C225.828 37.4323 226.023 37.4453 226.258 37.4453C226.505 37.4453 226.798 37.3542 227.137 37.1719C227.475 36.9896 227.82 36.7552 228.172 36.4688C228.536 36.1823 228.895 35.8698 229.246 35.5312C229.598 35.1797 229.917 34.8477 230.203 34.5352C230.503 34.2096 230.763 33.9167 230.984 33.6562L231.434 33.0703L231.863 33.4023C231.707 33.5586 231.505 33.7734 231.258 34.0469L230.438 34.9844C228.628 36.9375 227.195 37.9141 226.141 37.9141H225.809C225.704 37.9141 225.6 37.901 225.496 37.875C224.402 40.2578 222.078 41.4492 218.523 41.4492C216.974 41.4492 215.848 41.0781 215.145 40.3359C214.845 40.0104 214.695 39.5938 214.695 39.0859C214.695 38.5781 214.819 38.1484 215.066 37.7969C215.301 37.4323 215.581 37.1328 215.906 36.8984C216.57 36.4167 217.169 36.1758 217.703 36.1758C218.224 36.1758 218.484 36.4232 218.484 36.918C218.445 37.2565 218.159 37.5104 217.625 37.6797C217.456 37.7318 217.293 37.7578 217.137 37.7578C216.967 37.7578 216.811 37.7057 216.668 37.6016C216.512 37.4844 216.388 37.3997 216.297 37.3477C216.219 37.4258 216.121 37.5169 216.004 37.6211C215.874 37.7253 215.75 37.849 215.633 37.9922C215.346 38.3438 215.203 38.7083 215.203 39.0859C215.203 39.4505 215.327 39.7435 215.574 39.9648C215.822 40.1862 216.115 40.3555 216.453 40.4727C216.961 40.6549 217.495 40.7461 218.055 40.7461C218.602 40.7461 219.168 40.6289 219.754 40.3945C220.353 40.1602 220.939 39.7695 221.512 39.2227C223.087 37.7253 223.94 35.5052 224.07 32.5625C224.148 30.5833 224.389 29.0339 224.793 27.9141C224.806 27.875 224.812 27.8164 224.812 27.7383L220.203 33.4023C219.943 33.7148 219.754 33.9167 219.637 34.0078C219.507 34.099 219.441 34.1445 219.441 34.1445C219.285 34.1576 219.181 34.1185 219.129 34.0273C219.103 33.9622 219.161 33.8385 219.305 33.6562C222.664 29.6458 224.552 27.3672 224.969 26.8203C225.177 25.8047 225.516 25.2969 225.984 25.2969C226.206 25.2969 226.388 25.3555 226.531 25.4727C226.688 25.5898 226.766 25.7396 226.766 25.9219C226.753 26.1693 226.551 26.5208 226.16 26.9766C225.783 27.4193 225.548 27.7057 225.457 27.8359C225.379 27.9531 225.327 28.0573 225.301 28.1484C225.275 28.2266 225.262 28.3047 225.262 28.3828V28.6172C225.249 28.9688 225.281 29.3854 225.359 29.8672L225.848 33.1094C226.134 34.8802 226.076 36.3125 225.672 37.4062ZM254.246 40.6484C253.855 40.5703 253.426 40.5312 252.957 40.5312C252.241 40.5312 251.622 40.5638 251.102 40.6289L252.742 37.8945C251.128 36.6185 250.073 34.9844 249.578 32.9922C249.422 32.3411 249.344 31.6576 249.344 30.9414C249.344 30.2253 249.435 29.5547 249.617 28.9297C249.812 28.2917 250.079 27.7383 250.418 27.2695C251.134 26.2799 252.026 25.7852 253.094 25.7852C253.914 25.7852 254.617 26.1432 255.203 26.8594C255.854 27.6536 256.18 28.6953 256.18 29.9844C256.18 31.0651 255.757 32.6406 254.91 34.7109C254.65 35.349 254.357 35.987 254.031 36.625C257.143 31.8203 260.385 27.7253 263.758 24.3398L266.395 21.7812C266.629 21.5729 266.818 21.4688 266.961 21.4688C267.104 21.4688 267.176 21.5208 267.176 21.625C267.176 21.7422 266.818 22.1458 266.102 22.8359C265.398 23.513 264.533 24.4701 263.504 25.707C262.475 26.931 261.466 28.2396 260.477 29.6328C258.393 32.6016 256.616 35.6159 255.145 38.6758C255.965 39.0143 256.798 39.1836 257.645 39.1836C259.35 39.1836 260.828 38.6562 262.078 37.6016C263.25 36.5469 263.836 35.3815 263.836 34.1055C263.836 34.0404 263.823 33.9427 263.797 33.8125C263.276 33.7865 263.016 33.5521 263.016 33.1094C263.016 32.9661 263.068 32.8359 263.172 32.7188C263.289 32.6016 263.458 32.543 263.68 32.543C263.901 32.543 264.096 32.6536 264.266 32.875C264.435 33.0964 264.52 33.513 264.52 34.125C264.52 34.737 264.331 35.4076 263.953 36.1367C263.576 36.8659 263.055 37.4974 262.391 38.0312C261.023 39.151 259.435 39.7109 257.625 39.7109C256.727 39.7109 255.822 39.5286 254.91 39.1641L254.246 40.6484ZM253.035 37.3281C254.741 34.1641 255.594 31.6445 255.594 29.7695C255.594 28.2852 255.112 27.2891 254.148 26.7812C253.875 26.638 253.576 26.5664 253.25 26.5664C252.938 26.5664 252.605 26.6901 252.254 26.9375C251.915 27.1849 251.609 27.5104 251.336 27.9141C250.75 28.8255 250.457 29.8932 250.457 31.1172C250.457 33.6562 251.316 35.7266 253.035 37.3281ZM301.805 37.1133C299.956 37.1133 298.237 36.8659 296.648 36.3711C294.826 37.8815 293.458 38.9297 292.547 39.5156C290.854 40.5703 289.129 41.0977 287.371 41.0977C285.366 41.0977 284.07 40.5182 283.484 39.3594C283.315 39.0078 283.23 38.6628 283.23 38.3242C283.23 37.9857 283.289 37.7122 283.406 37.5039C283.523 37.2956 283.667 37.1328 283.836 37.0156C284.188 36.7682 284.598 36.6445 285.066 36.6445C285.717 36.6445 286.043 36.9375 286.043 37.5234C286.043 37.7839 285.939 38.0117 285.73 38.207C285.509 38.3893 285.216 38.4805 284.852 38.4805C284.474 38.4805 284.194 38.4154 284.012 38.2852V38.4219C284.012 39.8542 285.184 40.5703 287.527 40.5703C289.155 40.5703 290.997 39.8542 293.055 38.4219L295.965 36.1367C294.116 35.4466 292.638 34.4701 291.531 33.207C290.464 32.0091 289.891 30.6875 289.812 29.2422C289.734 27.8229 290.203 26.612 291.219 25.6094C292.286 24.5547 293.732 24.0273 295.555 24.0273C298.094 24.0273 300.229 25.1146 301.961 27.2891C302.482 27.9531 302.924 28.6628 303.289 29.418C307.469 25.4076 310.203 22.8294 311.492 21.6836L314.695 18.9102C319.018 15.3555 322.202 13.5781 324.246 13.5781C324.48 13.5781 324.598 13.6172 324.598 13.6953C324.598 13.7865 324.487 13.8711 324.266 13.9492C324.057 14.0273 323.823 14.1966 323.562 14.457C323.302 14.7174 322.924 15.1536 322.43 15.7656L320.516 18.207L307.293 35.7852C310.926 34.7044 313.758 32.7708 315.789 29.9844C316.44 29.099 316.876 28.3568 317.098 27.7578C317.397 26.9635 317.579 26.5664 317.645 26.5664C317.684 26.5664 317.742 26.625 317.82 26.7422C317.911 26.8464 317.944 27.0807 317.918 27.4453C317.905 27.7969 317.814 28.2201 317.645 28.7148C317.475 29.1966 317.26 29.6589 317 30.1016C316.57 30.8438 315.861 31.6836 314.871 32.6211C312.879 34.5612 310.145 35.8893 306.668 36.6055L303.328 41.0195L302.078 40.9414C301.661 40.9154 301.329 40.9023 301.082 40.9023C300.848 40.9023 300.646 40.9154 300.477 40.9414L299.93 41.0195L302.82 37.4453C302.859 37.3802 302.898 37.3216 302.938 37.2695C302.977 37.2044 303.009 37.1393 303.035 37.0742C302.618 37.1003 302.208 37.1133 301.805 37.1133ZM303.562 30.0234C304.096 31.3906 304.363 32.5625 304.363 33.5391C304.363 34.5156 304.285 35.2839 304.129 35.8438L311.375 27.0742C316.154 21.5143 319.116 18.1289 320.262 16.918C321.408 15.694 322.254 14.8281 322.801 14.3203L321.492 14.8672C319.734 15.6354 317.221 17.4323 313.953 20.2578L309.852 23.9688L303.562 30.0234ZM296.434 35.7461C298.973 33.4805 301.108 31.5078 302.84 29.8281C301.759 27.3672 300.112 25.7526 297.898 24.9844C297.156 24.737 296.427 24.6133 295.711 24.6133C295.008 24.6133 294.376 24.7435 293.816 25.0039C293.27 25.2513 292.788 25.5833 292.371 26C291.473 26.8984 291.023 27.9661 291.023 29.2031C291.023 31.3776 292.039 33.168 294.07 34.5742C294.747 35.043 295.535 35.4336 296.434 35.7461ZM297.117 35.9609C298.549 36.3646 300.151 36.5664 301.922 36.5664C302.378 36.5664 302.833 36.5469 303.289 36.5078C303.589 35.7396 303.738 34.9974 303.738 34.2812C303.738 32.9531 303.523 31.6836 303.094 30.4727C300.164 33.2331 298.172 35.0625 297.117 35.9609ZM324.305 39.3203C323.484 39.8411 322.592 40.2708 321.629 40.6094C320.678 40.9479 319.773 41.1172 318.914 41.1172C318.055 41.1172 317.397 41.0326 316.941 40.8633C316.499 40.681 316.134 40.4336 315.848 40.1211C314.624 38.793 314.63 36.8333 315.867 34.2422C316.401 33.0964 317.208 32.0547 318.289 31.1172C319.37 30.1667 320.32 29.457 321.141 28.9883C322.729 28.0768 324.22 27.6211 325.613 27.6211C326.993 27.6211 327.716 28.0508 327.781 28.9102C327.872 30.3034 326.18 31.8203 322.703 33.4609C321.427 34.0599 319.819 34.6784 317.879 35.3164C317.111 36.5664 316.727 37.5885 316.727 38.3828C316.727 39.1641 316.928 39.724 317.332 40.0625C317.749 40.388 318.348 40.5508 319.129 40.5508C319.923 40.5508 320.776 40.3815 321.688 40.043C322.612 39.7044 323.471 39.2747 324.266 38.7539C325.073 38.2331 325.802 37.6667 326.453 37.0547C327.104 36.4427 327.677 35.8568 328.172 35.2969C328.68 34.737 329.09 34.2552 329.402 33.8516C329.728 33.4349 329.949 33.1745 330.066 33.0703L330.477 33.4023C330.307 33.5456 330.047 33.8385 329.695 34.2812C329.357 34.724 328.921 35.2318 328.387 35.8047C327.866 36.3646 327.26 36.957 326.57 37.582C325.893 38.207 325.138 38.7865 324.305 39.3203ZM318.328 34.6328C322.26 33.2526 324.793 31.8789 325.926 30.5117C326.303 30.056 326.492 29.6133 326.492 29.1836C326.492 28.4544 326.154 28.0898 325.477 28.0898C324.279 28.0898 322.781 29.138 320.984 31.2344C319.734 32.6927 318.849 33.8255 318.328 34.6328ZM335.945 37.4062C336.102 37.4323 336.297 37.4453 336.531 37.4453C336.779 37.4453 337.072 37.3542 337.41 37.1719C337.749 36.9896 338.094 36.7552 338.445 36.4688C338.81 36.1823 339.168 35.8698 339.52 35.5312C339.871 35.1797 340.19 34.8477 340.477 34.5352C340.776 34.2096 341.036 33.9167 341.258 33.6562L341.707 33.0703L342.137 33.4023C341.98 33.5586 341.779 33.7734 341.531 34.0469L340.711 34.9844C338.901 36.9375 337.469 37.9141 336.414 37.9141H336.082C335.978 37.9141 335.874 37.901 335.77 37.875C334.676 40.2578 332.352 41.4492 328.797 41.4492C327.247 41.4492 326.121 41.0781 325.418 40.3359C325.118 40.0104 324.969 39.5938 324.969 39.0859C324.969 38.5781 325.092 38.1484 325.34 37.7969C325.574 37.4323 325.854 37.1328 326.18 36.8984C326.844 36.4167 327.443 36.1758 327.977 36.1758C328.497 36.1758 328.758 36.4232 328.758 36.918C328.719 37.2565 328.432 37.5104 327.898 37.6797C327.729 37.7318 327.566 37.7578 327.41 37.7578C327.241 37.7578 327.085 37.7057 326.941 37.6016C326.785 37.4844 326.661 37.3997 326.57 37.3477C326.492 37.4258 326.395 37.5169 326.277 37.6211C326.147 37.7253 326.023 37.849 325.906 37.9922C325.62 38.3438 325.477 38.7083 325.477 39.0859C325.477 39.4505 325.6 39.7435 325.848 39.9648C326.095 40.1862 326.388 40.3555 326.727 40.4727C327.234 40.6549 327.768 40.7461 328.328 40.7461C328.875 40.7461 329.441 40.6289 330.027 40.3945C330.626 40.1602 331.212 39.7695 331.785 39.2227C333.361 37.7253 334.214 35.5052 334.344 32.5625C334.422 30.5833 334.663 29.0339 335.066 27.9141C335.079 27.875 335.086 27.8164 335.086 27.7383L330.477 33.4023C330.216 33.7148 330.027 33.9167 329.91 34.0078C329.78 34.099 329.715 34.1445 329.715 34.1445C329.559 34.1576 329.454 34.1185 329.402 34.0273C329.376 33.9622 329.435 33.8385 329.578 33.6562C332.938 29.6458 334.826 27.3672 335.242 26.8203C335.451 25.8047 335.789 25.2969 336.258 25.2969C336.479 25.2969 336.661 25.3555 336.805 25.4727C336.961 25.5898 337.039 25.7396 337.039 25.9219C337.026 26.1693 336.824 26.5208 336.434 26.9766C336.056 27.4193 335.822 27.7057 335.73 27.8359C335.652 27.9531 335.6 28.0573 335.574 28.1484C335.548 28.2266 335.535 28.3047 335.535 28.3828V28.6172C335.522 28.9688 335.555 29.3854 335.633 29.8672L336.121 33.1094C336.408 34.8802 336.349 36.3125 335.945 37.4062ZM339.617 39.8672C339.617 40.2578 339.93 40.4596 340.555 40.4727C341.18 40.4857 341.805 40.349 342.43 40.0625C343.068 39.776 343.699 39.4115 344.324 38.9688C344.949 38.526 345.555 38.0312 346.141 37.4844C346.727 36.9245 347.273 36.3711 347.781 35.8242C348.289 35.2773 348.745 34.763 349.148 34.2812L350.164 33.0703L350.594 33.4023L349.578 34.5742C345.945 38.8841 342.892 41.0391 340.418 41.0391C339.702 41.0391 339.168 40.8958 338.816 40.6094C338.452 40.3229 338.27 40.0104 338.27 39.6719C338.27 39.3333 338.289 39.0534 338.328 38.832C338.354 38.6107 338.419 38.3698 338.523 38.1094C338.628 37.8359 338.784 37.5169 338.992 37.1523C339.188 36.7878 339.454 36.3451 339.793 35.8242L342.84 31.4297L347.879 24.3398H346.336C345.945 24.3398 345.75 24.2487 345.75 24.0664C345.75 23.8711 345.997 23.7734 346.492 23.7734H348.27L351.883 18.6953C352.794 18.8385 353.699 18.8385 354.598 18.6953L350.828 23.7734H355.867C356.232 23.7734 356.414 23.8711 356.414 24.0664C356.414 24.2487 356.251 24.3398 355.926 24.3398H350.398L342.312 35.3359C340.919 37.3021 340.125 38.513 339.93 38.9688C339.721 39.4245 339.617 39.724 339.617 39.8672ZM347.82 40.6289C347.469 40.5638 347.078 40.5312 346.648 40.5312C345.906 40.5312 345.294 40.5964 344.812 40.7266L366.434 9.84766C367.306 9.97786 368.211 9.97786 369.148 9.84766L349.773 36.7422L349.871 36.957C350.861 35.8112 351.779 34.7956 352.625 33.9102L354.949 31.5664C356.277 30.2773 357.352 29.3659 358.172 28.832C359.409 28.0247 360.581 27.6211 361.688 27.6211C362.846 27.6211 363.576 28.0378 363.875 28.8711C364.461 30.4857 362.632 33.5716 358.387 38.1289L357.625 38.9688C357.208 39.4375 357 39.7956 357 40.043C357 40.1732 357.143 40.2839 357.43 40.375C357.716 40.4531 358.12 40.4922 358.641 40.4922C359.161 40.4922 359.773 40.3294 360.477 40.0039C361.18 39.6654 361.863 39.2422 362.527 38.7344C363.191 38.2266 363.823 37.6667 364.422 37.0547C365.021 36.4427 365.555 35.8633 366.023 35.3164C366.505 34.7695 366.909 34.2878 367.234 33.8711C367.56 33.4544 367.781 33.1875 367.898 33.0703L368.328 33.4023C368.198 33.5456 367.957 33.832 367.605 34.2617C367.267 34.6914 366.844 35.1927 366.336 35.7656C365.841 36.3255 365.275 36.918 364.637 37.543C364.012 38.168 363.341 38.7344 362.625 39.2422C360.984 40.4401 359.493 41.0391 358.152 41.0391C357.085 41.0391 356.297 40.7461 355.789 40.1602C355.633 39.9779 355.555 39.763 355.555 39.5156C355.555 39.2682 355.587 38.9883 355.652 38.6758C355.73 38.3503 355.913 37.9401 356.199 37.4453C356.863 36.3255 357.742 35.1536 358.836 33.9297C359.93 32.6927 360.652 31.8529 361.004 31.4102C361.355 30.9674 361.635 30.5833 361.844 30.2578C362.234 29.6328 362.43 29.151 362.43 28.8125C362.43 28.3438 362.124 28.1094 361.512 28.1094C360.691 28.1094 359.747 28.474 358.68 29.2031C356.089 30.9349 353.068 33.9492 349.617 38.2461L347.82 40.6289ZM375.32 39.3203C374.5 39.8411 373.608 40.2708 372.645 40.6094C371.694 40.9479 370.789 41.1172 369.93 41.1172C369.07 41.1172 368.413 41.0326 367.957 40.8633C367.514 40.681 367.15 40.4336 366.863 40.1211C365.639 38.793 365.646 36.8333 366.883 34.2422C367.417 33.0964 368.224 32.0547 369.305 31.1172C370.385 30.1667 371.336 29.457 372.156 28.9883C373.745 28.0768 375.236 27.6211 376.629 27.6211C378.009 27.6211 378.732 28.0508 378.797 28.9102C378.888 30.3034 377.195 31.8203 373.719 33.4609C372.443 34.0599 370.835 34.6784 368.895 35.3164C368.126 36.5664 367.742 37.5885 367.742 38.3828C367.742 39.1641 367.944 39.724 368.348 40.0625C368.764 40.388 369.363 40.5508 370.145 40.5508C370.939 40.5508 371.792 40.3815 372.703 40.043C373.628 39.7044 374.487 39.2747 375.281 38.7539C376.089 38.2331 376.818 37.6667 377.469 37.0547C378.12 36.4427 378.693 35.8568 379.188 35.2969C379.695 34.737 380.105 34.2552 380.418 33.8516C380.743 33.4349 380.965 33.1745 381.082 33.0703L381.492 33.4023C381.323 33.5456 381.062 33.8385 380.711 34.2812C380.372 34.724 379.936 35.2318 379.402 35.8047C378.882 36.3646 378.276 36.957 377.586 37.582C376.909 38.207 376.154 38.7865 375.32 39.3203ZM369.344 34.6328C373.276 33.2526 375.809 31.8789 376.941 30.5117C377.319 30.056 377.508 29.6133 377.508 29.1836C377.508 28.4544 377.169 28.0898 376.492 28.0898C375.294 28.0898 373.797 29.138 372 31.2344C370.75 32.6927 369.865 33.8255 369.344 34.6328ZM378.992 39.8672C378.992 40.2578 379.305 40.4596 379.93 40.4727C380.555 40.4857 381.18 40.349 381.805 40.0625C382.443 39.776 383.074 39.4115 383.699 38.9688C384.324 38.526 384.93 38.0312 385.516 37.4844C386.102 36.9245 386.648 36.3711 387.156 35.8242C387.664 35.2773 388.12 34.763 388.523 34.2812L389.539 33.0703L389.969 33.4023L388.953 34.5742C385.32 38.8841 382.267 41.0391 379.793 41.0391C379.077 41.0391 378.543 40.8958 378.191 40.6094C377.827 40.3229 377.645 40.0104 377.645 39.6719C377.645 39.3333 377.664 39.0534 377.703 38.832C377.729 38.6107 377.794 38.3698 377.898 38.1094C378.003 37.8359 378.159 37.5169 378.367 37.1523C378.562 36.7878 378.829 36.3451 379.168 35.8242L382.215 31.4297L387.254 24.3398H385.711C385.32 24.3398 385.125 24.2487 385.125 24.0664C385.125 23.8711 385.372 23.7734 385.867 23.7734H387.645L391.258 18.6953C392.169 18.8385 393.074 18.8385 393.973 18.6953L390.203 23.7734H395.242C395.607 23.7734 395.789 23.8711 395.789 24.0664C395.789 24.2487 395.626 24.3398 395.301 24.3398H389.773L381.688 35.3359C380.294 37.3021 379.5 38.513 379.305 38.9688C379.096 39.4245 378.992 39.724 378.992 39.8672ZM399.754 23.3438C399.572 23.513 399.363 23.6497 399.129 23.7539C398.895 23.8451 398.628 23.8906 398.328 23.8906C398.029 23.8906 397.768 23.7799 397.547 23.5586C397.339 23.3242 397.234 23.0638 397.234 22.7773C397.234 22.4909 397.286 22.237 397.391 22.0156C397.495 21.7943 397.638 21.599 397.82 21.4297C398.198 21.0391 398.608 20.8438 399.051 20.8438C399.507 20.8438 399.839 20.9674 400.047 21.2148C400.268 21.4492 400.379 21.7096 400.379 21.9961C400.379 22.2826 400.32 22.5365 400.203 22.7578C400.099 22.9792 399.949 23.1745 399.754 23.3438ZM387.352 39.8867C387.352 40.2904 387.736 40.4922 388.504 40.4922C389.272 40.4922 389.995 40.3164 390.672 39.9648C391.362 39.6133 392.052 39.1771 392.742 38.6562C393.445 38.1224 394.122 37.543 394.773 36.918L396.531 35.1602C397.052 34.6133 397.482 34.1445 397.82 33.7539C398.159 33.3503 398.361 33.1159 398.426 33.0508L398.816 33.4023C398.686 33.5326 398.439 33.8125 398.074 34.2422C397.723 34.6589 397.28 35.1536 396.746 35.7266C396.212 36.2865 395.613 36.8789 394.949 37.5039C394.285 38.1289 393.589 38.7018 392.859 39.2227C391.18 40.4336 389.708 41.0391 388.445 41.0391C387.638 41.0391 386.993 40.8958 386.512 40.6094C386.03 40.3099 385.789 39.9714 385.789 39.5938C385.789 39.2161 385.828 38.8776 385.906 38.5781C385.984 38.2786 386.128 37.9206 386.336 37.5039C386.544 37.0872 386.837 36.599 387.215 36.0391C387.579 35.4792 388.061 34.8086 388.66 34.0273C389.246 33.2461 389.962 32.3411 390.809 31.3125L393.816 27.7578C393.973 27.7969 394.292 27.8164 394.773 27.8164H395.691C396.03 27.8164 396.303 27.8034 396.512 27.7773C392.202 32.9206 389.78 35.8503 389.246 36.5664C388.699 37.2695 388.296 37.8229 388.035 38.2266C387.579 38.9167 387.352 39.4701 387.352 39.8867ZM408.367 29.2617C408.341 28.5065 407.866 28.1289 406.941 28.1289C405.053 28.1289 402.612 30.0951 399.617 34.0273C398.38 35.668 397.762 37.1523 397.762 38.4805C397.762 39.0534 397.918 39.4896 398.23 39.7891C398.777 40.2969 399.474 40.5508 400.32 40.5508C401.18 40.5508 402.085 40.375 403.035 40.0234C403.999 39.6719 404.891 39.2292 405.711 38.6953C406.531 38.1615 407.28 37.582 407.957 36.957C408.634 36.319 409.22 35.7266 409.715 35.1797C410.21 34.6198 410.6 34.1445 410.887 33.7539C411.173 33.3633 411.342 33.1354 411.395 33.0703L411.824 33.4023L411.297 34.1055C408.849 37.3216 406.115 39.4766 403.094 40.5703C402.078 40.9349 401.121 41.1172 400.223 41.1172C399.324 41.1172 398.621 41.026 398.113 40.8438C397.605 40.6615 397.182 40.4141 396.844 40.1016C396.193 39.4635 395.867 38.6693 395.867 37.7188C395.867 35.8568 396.674 33.9622 398.289 32.0352C399.552 30.5247 401.049 29.3659 402.781 28.5586C404.188 27.9076 405.555 27.5951 406.883 27.6211C408.055 27.6602 408.797 28.0573 409.109 28.8125C409.422 29.5807 409.253 30.2839 408.602 30.9219C408.172 31.3646 407.755 31.5859 407.352 31.5859C406.414 31.5859 405.932 31.2018 405.906 30.4336C405.893 30.069 406.03 29.7695 406.316 29.5352C406.616 29.2878 406.909 29.151 407.195 29.125C407.612 29.099 408.003 29.1706 408.367 29.3398V29.2617ZM417.312 37.4062C417.469 37.4323 417.664 37.4453 417.898 37.4453C418.146 37.4453 418.439 37.3542 418.777 37.1719C419.116 36.9896 419.461 36.7552 419.812 36.4688C420.177 36.1823 420.535 35.8698 420.887 35.5312C421.238 35.1797 421.557 34.8477 421.844 34.5352C422.143 34.2096 422.404 33.9167 422.625 33.6562L423.074 33.0703L423.504 33.4023C423.348 33.5586 423.146 33.7734 422.898 34.0469L422.078 34.9844C420.268 36.9375 418.836 37.9141 417.781 37.9141H417.449C417.345 37.9141 417.241 37.901 417.137 37.875C416.043 40.2578 413.719 41.4492 410.164 41.4492C408.615 41.4492 407.488 41.0781 406.785 40.3359C406.486 40.0104 406.336 39.5938 406.336 39.0859C406.336 38.5781 406.46 38.1484 406.707 37.7969C406.941 37.4323 407.221 37.1328 407.547 36.8984C408.211 36.4167 408.81 36.1758 409.344 36.1758C409.865 36.1758 410.125 36.4232 410.125 36.918C410.086 37.2565 409.799 37.5104 409.266 37.6797C409.096 37.7318 408.934 37.7578 408.777 37.7578C408.608 37.7578 408.452 37.7057 408.309 37.6016C408.152 37.4844 408.029 37.3997 407.938 37.3477C407.859 37.4258 407.762 37.5169 407.645 37.6211C407.514 37.7253 407.391 37.849 407.273 37.9922C406.987 38.3438 406.844 38.7083 406.844 39.0859C406.844 39.4505 406.967 39.7435 407.215 39.9648C407.462 40.1862 407.755 40.3555 408.094 40.4727C408.602 40.6549 409.135 40.7461 409.695 40.7461C410.242 40.7461 410.809 40.6289 411.395 40.3945C411.993 40.1602 412.579 39.7695 413.152 39.2227C414.728 37.7253 415.581 35.5052 415.711 32.5625C415.789 30.5833 416.03 29.0339 416.434 27.9141C416.447 27.875 416.453 27.8164 416.453 27.7383L411.844 33.4023C411.583 33.7148 411.395 33.9167 411.277 34.0078C411.147 34.099 411.082 34.1445 411.082 34.1445C410.926 34.1576 410.822 34.1185 410.77 34.0273C410.743 33.9622 410.802 33.8385 410.945 33.6562C414.305 29.6458 416.193 27.3672 416.609 26.8203C416.818 25.8047 417.156 25.2969 417.625 25.2969C417.846 25.2969 418.029 25.3555 418.172 25.4727C418.328 25.5898 418.406 25.7396 418.406 25.9219C418.393 26.1693 418.191 26.5208 417.801 26.9766C417.423 27.4193 417.189 27.7057 417.098 27.8359C417.02 27.9531 416.967 28.0573 416.941 28.1484C416.915 28.2266 416.902 28.3047 416.902 28.3828V28.6172C416.889 28.9688 416.922 29.3854 417 29.8672L417.488 33.1094C417.775 34.8802 417.716 36.3125 417.312 37.4062Z" fill="#9E6A5B"/>
<path d="M361.732 52.268C363.052 52.448 363.994 52.832 364.558 53.42C365.122 53.996 365.404 54.692 365.404 55.508C365.404 56.192 365.23 56.798 364.882 57.326C364.534 57.854 364.036 58.268 363.388 58.568C362.74 58.856 361.972 59 361.084 59C360.76 59 360.484 58.994 360.256 58.982C359.488 58.958 358.732 58.946 357.988 58.946C357.004 58.946 356.26 58.964 355.756 59V58.64C356.188 58.616 356.5 58.568 356.692 58.496C356.896 58.424 357.034 58.286 357.106 58.082C357.178 57.878 357.214 57.548 357.214 57.092V48.164C357.214 47.708 357.178 47.378 357.106 47.174C357.034 46.97 356.896 46.832 356.692 46.76C356.5 46.688 356.188 46.64 355.756 46.616V46.256C356.26 46.292 356.992 46.31 357.952 46.31L359.896 46.292C360.124 46.28 360.382 46.274 360.67 46.274C361.894 46.274 362.83 46.532 363.478 47.048C364.138 47.564 364.468 48.248 364.468 49.1C364.468 49.796 364.246 50.42 363.802 50.972C363.37 51.524 362.68 51.944 361.732 52.232V52.268ZM360.22 46.616C359.848 46.616 359.566 46.658 359.374 46.742C359.194 46.826 359.068 46.976 358.996 47.192C358.924 47.408 358.888 47.732 358.888 48.164V52.232H360.094C361.078 52.232 361.762 51.968 362.146 51.44C362.542 50.9 362.74 50.186 362.74 49.298C362.74 48.398 362.542 47.726 362.146 47.282C361.75 46.838 361.108 46.616 360.22 46.616ZM360.238 58.586C362.482 58.586 363.604 57.536 363.604 55.436C363.604 54.488 363.346 53.768 362.83 53.276C362.326 52.784 361.516 52.538 360.4 52.538H358.888V57.092C358.888 57.524 358.924 57.842 358.996 58.046C359.068 58.25 359.194 58.394 359.374 58.478C359.566 58.55 359.854 58.586 360.238 58.586ZM376.064 56.696C376.064 57.38 376.106 58.148 376.19 59C375.374 58.964 374 58.946 372.068 58.946C369.764 58.946 368.024 58.964 366.848 59V58.64C367.28 58.616 367.592 58.568 367.784 58.496C367.988 58.424 368.126 58.286 368.198 58.082C368.27 57.878 368.306 57.548 368.306 57.092V48.164C368.306 47.708 368.27 47.378 368.198 47.174C368.126 46.97 367.988 46.832 367.784 46.76C367.592 46.688 367.28 46.64 366.848 46.616V46.256C368.024 46.292 369.764 46.31 372.068 46.31C373.832 46.31 375.086 46.292 375.83 46.256C375.746 47.048 375.704 47.756 375.704 48.38C375.704 48.848 375.722 49.22 375.758 49.496H375.344C375.26 48.716 375.152 48.14 375.02 47.768C374.888 47.384 374.666 47.108 374.354 46.94C374.042 46.76 373.568 46.67 372.932 46.67H371.438C371.006 46.67 370.688 46.706 370.484 46.778C370.292 46.838 370.16 46.97 370.088 47.174C370.016 47.378 369.98 47.708 369.98 48.164V52.412H371.168C371.588 52.412 371.912 52.316 372.14 52.124C372.368 51.92 372.518 51.686 372.59 51.422C372.674 51.146 372.74 50.804 372.788 50.396L372.842 50.036H373.256C373.22 50.54 373.202 51.104 373.202 51.728V52.592C373.202 53.204 373.238 54.056 373.31 55.148H372.896C372.884 55.064 372.848 54.776 372.788 54.284C372.728 53.78 372.56 53.402 372.284 53.15C372.02 52.898 371.648 52.772 371.168 52.772H369.98V57.092C369.98 57.548 370.016 57.878 370.088 58.082C370.16 58.286 370.292 58.424 370.484 58.496C370.688 58.556 371.006 58.586 371.438 58.586H372.752C373.496 58.586 374.06 58.49 374.444 58.298C374.84 58.094 375.128 57.776 375.308 57.344C375.488 56.9 375.62 56.252 375.704 55.4H376.118C376.082 55.724 376.064 56.156 376.064 56.696ZM387.267 57.488C387.555 58.232 387.969 58.616 388.509 58.64V59C388.029 58.964 387.387 58.946 386.583 58.946C385.551 58.946 384.783 58.964 384.279 59V58.64C384.735 58.616 385.059 58.562 385.251 58.478C385.455 58.382 385.557 58.214 385.557 57.974C385.557 57.77 385.485 57.488 385.341 57.128L384.243 54.176H379.887L379.149 56.084C378.909 56.732 378.789 57.224 378.789 57.56C378.789 57.932 378.915 58.202 379.167 58.37C379.431 58.538 379.827 58.628 380.355 58.64V59C379.671 58.964 378.981 58.946 378.285 58.946C377.745 58.946 377.295 58.964 376.935 59V58.64C377.535 58.496 378.009 57.974 378.357 57.074L382.587 46.166H382.875L387.267 57.488ZM384.099 53.816L382.083 48.434L380.031 53.816H384.099ZM400.188 46.616C399.768 46.64 399.456 46.706 399.252 46.814C399.048 46.91 398.91 47.078 398.838 47.318C398.766 47.546 398.73 47.888 398.73 48.344V53.762C398.73 54.626 398.67 55.37 398.55 55.994C398.442 56.606 398.256 57.134 397.992 57.578C397.692 58.094 397.248 58.502 396.66 58.802C396.084 59.102 395.43 59.252 394.698 59.252C393.378 59.252 392.37 58.928 391.674 58.28C391.146 57.788 390.792 57.23 390.612 56.606C390.432 55.982 390.342 55.052 390.342 53.816V48.164C390.342 47.708 390.306 47.378 390.234 47.174C390.162 46.97 390.024 46.832 389.82 46.76C389.628 46.688 389.316 46.64 388.884 46.616V46.256C389.388 46.292 390.156 46.31 391.188 46.31C392.16 46.31 392.922 46.292 393.474 46.256V46.616C393.042 46.64 392.724 46.688 392.52 46.76C392.328 46.832 392.196 46.97 392.124 47.174C392.052 47.378 392.016 47.708 392.016 48.164V54.122C392.016 55.082 392.082 55.88 392.214 56.516C392.346 57.152 392.616 57.662 393.024 58.046C393.444 58.43 394.056 58.622 394.86 58.622C396.132 58.622 397.026 58.214 397.542 57.398C398.058 56.582 398.316 55.436 398.316 53.96V48.344C398.316 47.696 398.196 47.252 397.956 47.012C397.728 46.772 397.302 46.64 396.678 46.616V46.256C397.11 46.292 397.722 46.31 398.514 46.31C399.234 46.31 399.792 46.292 400.188 46.256V46.616ZM411.324 46.256C411.24 47.108 411.198 47.876 411.198 48.56C411.198 49.16 411.216 49.652 411.252 50.036H410.838C410.742 49.112 410.622 48.428 410.478 47.984C410.334 47.528 410.082 47.198 409.722 46.994C409.362 46.778 408.81 46.67 408.066 46.67H407.094V56.912C407.094 57.416 407.142 57.782 407.238 58.01C407.334 58.238 407.502 58.394 407.742 58.478C407.982 58.562 408.372 58.616 408.912 58.64V59C408.288 58.964 407.406 58.946 406.266 58.946C405.066 58.946 404.178 58.964 403.602 59V58.64C404.142 58.616 404.532 58.562 404.772 58.478C405.012 58.394 405.18 58.238 405.276 58.01C405.372 57.782 405.42 57.416 405.42 56.912V46.67H404.448C403.704 46.67 403.152 46.778 402.792 46.994C402.432 47.198 402.18 47.528 402.036 47.984C401.892 48.428 401.772 49.112 401.676 50.036H401.262C401.298 49.652 401.316 49.16 401.316 48.56C401.316 47.876 401.274 47.108 401.19 46.256C402.186 46.292 403.878 46.31 406.266 46.31C408.642 46.31 410.328 46.292 411.324 46.256ZM421.082 46.31C421.622 46.31 422.072 46.292 422.432 46.256V46.616C422.192 46.676 421.958 46.832 421.73 47.084C421.502 47.324 421.256 47.702 420.992 48.218L418.166 53.816V57.092C418.166 57.548 418.202 57.878 418.274 58.082C418.346 58.286 418.478 58.424 418.67 58.496C418.874 58.568 419.192 58.616 419.624 58.64V59C419.072 58.964 418.31 58.946 417.338 58.946C416.306 58.946 415.538 58.964 415.034 59V58.64C415.466 58.616 415.778 58.568 415.97 58.496C416.174 58.424 416.312 58.286 416.384 58.082C416.456 57.878 416.492 57.548 416.492 57.092V54.392L412.838 47.642C412.622 47.246 412.43 46.982 412.262 46.85C412.106 46.706 411.95 46.634 411.794 46.634V46.256C412.262 46.292 412.79 46.31 413.378 46.31C414.542 46.31 415.382 46.292 415.898 46.256V46.634C415.058 46.634 414.638 46.862 414.638 47.318C414.638 47.498 414.698 47.708 414.818 47.948L417.806 53.69L420.11 49.118C420.434 48.482 420.596 47.966 420.596 47.57C420.596 47.234 420.464 46.994 420.2 46.85C419.936 46.706 419.54 46.628 419.012 46.616V46.256C419.696 46.292 420.386 46.31 421.082 46.31Z" fill="black"/>
<rect x="0.5" y="0.5" width="434" height="65" stroke="#D9BE99"/>
</svg>
